<?xml version="1.0" encoding="UTF-8"?>
<svg version="1.1" viewBox="0 0 334.40359 287.9899" xmlns="http://www.w3.org/2000/svg">
 <g transform="translate(-182.8 -388.37)" fill-rule="evenodd">
  <path class="fil0" d="m373.79 570.14 10.966-8.0801 8.6574-7.5032 4.0402-5.7716 2.3085-6.3487 2.8858-1.7314 5.7716 0.57712 10.389 6.9258 2.8858 4.6174 5.1945-4.6174 5.1945-7.503 4.04-1.7316 6.3487 1.1542 8.6574 9.2345-7.503 11.543-5.7716 8.0803c-17.08 27.399-38.213 18.96-64.064 1.1542z" fill="#f2dfc7"/>
  <path class="fil0" transform="matrix(2.1047 0 0 2.1047 149.33 398.47)" d="m54.43 76.615 3.4019-3.5563 4.1133-3.2907h3.2906l3.5648 1.9196 3.2907 3.5648 2.4679 4.3875 2.7422 2.468 3.5649 0.2742-4.1133 4.3875-3.2906 2.468-2.468 0.8226-3.8391-2.7422-5.4843-4.1132-4.6618-4.1133-2.5792-2.4765z" fill="#f2dfc7"/>
  <path class="fil1" d="m363.97 554.33-11.864-7.431-13.517-2.6562-9.0653 11.109-10.009 13.815-6.8404-3.532-7.3602-6.074-3.9584-7.8307-5.7762-7.6265-9.2364-2.4299-6.9168 1.8574-8.1649 4.3621-6.2584 6.1749-5.7356-6.4803-9.3282-12.345-13.247-4.1076-6.9254 6.0957-7.3449 10.24c-0.09008-1.9256-5.8817-6.7675-5.8817-8.7089 0-71.389 71.773-126.41 153.2-126.41 42.733 0 81.219 15.951 108.15 41.423l-5.8461 0.33718-9.8291 0.64615c-0.9446-0.97239-1.9252-1.8991-2.9388-2.7702-3.9016-3.3526-8.4562-5.8432-13.215-7.797-5.7653-2.367-13.047-2.6309-18.541 0.53207-5.1598 2.9708-8.6212 8.6517-8.6997 14.596-6.2849 0.82148-12.72 3.7572-16.725 8.6673-2.6724 3.2766-4.2486 7.1635-4.5982 11.223l-4.3536 0.2391-4.0504 0.21384c-4.0988 0.23531-8.682 0.19006-12.484 2.0142-3.2884 1.5777-5.7045 3.8925-7.5943 6.989-3.6656 6.0061-2.2982 14.567 2.6147 19.449 3.421 3.4 7.7366 4.9169 12.434 5.4738l14.449 0.98439 36.645 0.07114 13.576 4.7592c5.0924 1.0865 10.198 0.60069 15.204-0.619 1.9496-0.47504 3.8645-1.33 5.6453-2.4257 10.203 2.91 21.337 3.1742 31.409 1.2153 4.4686-0.86905 8.6949-2.183 12.726-3.9443 2.274 9.0182 3.4819 18.388 3.4819 28.005 0 9.2808-0.57502 19.139-2.8254 28.199l-10.584-7.299-27.502-34.824-6.3167 1.6421-8.5562 8.3021-6.6169 9.1564-3.5332-2.2159-7.4505-6.8219-6.0877-0.43505-6.5377 4.9438-4.6822 8.2895-7.2935-7.6322-11.035-5.5889-5.1604 4.3134-3.5092 7.612-6.3889 6.3104-13.931 10.99-15.225-12.243z" fill="#efd3b3"/>
  <g transform="matrix(2.1047 0 0 2.1047 145.31 399.61)">
   <path class="fil2" d="m137.9 81.56-11.089-10.725c-1.3515-0.951-3.3537-2.016-5.1145-1.5911-1.335 0.322-1.7454 1.7529-2.2827 2.8262-0.4281 0.8551-0.7753 1.7686-1.3944 2.4974l-2.7486 2.469-8.9651 7.2661-2.683 1.4532v-0.1654l2.3814-1.6832 10.206-9.1941c0.5585-0.5424 1.1087-1.1 1.4784-1.7853 0.9767-1.8102 1.3203-4.3811 3.6835-4.8978 1.0702-0.2339 2.3301-0.1196 3.3186 0.3764 1.9808 0.9939 3.8439 2.2437 5.4338 3.7876l6.6453 7.5894 1.1305 1.7764z" fill="#1f1a17"/>
  </g>
  <g transform="matrix(2.1047 0 0 2.1047 145.31 399.61)">
   <path class="fil2" d="m79.221 82.657c-0.8168-0.2911-1.6539-0.5326-2.3805-1.0058-2.2162-1.4432-3.5083-3.8514-5.0762-5.8903-1.6832-2.189-3.4066-4.5692-6.3297-5.0049-2.1962-0.3273-4.3336 0.4997-6.019 1.8997l-4.7442 4.5647c-2.16 2.1764-4.2759 4.9542-7.2211 6.1471-0.7928 0.3212-1.6558 0.3446-2.5066 0.4333v-0.094l2.3143-0.745c2.7548-1.4338 4.6585-4.1557 6.6981-6.3855 1.8824-2.0578 3.6401-4.2294 5.9839-5.7958 2.4538-1.64 5.6891-1.8561 8.2362-0.2527 3.7291 2.3474 5.0882 6.8476 8.0285 9.9397 0.8904 0.9364 1.9289 1.5234 3.0163 2.1895z" fill="#1f1a17"/>
  </g>
  <path class="fil4" d="m344.31 553.11 17.591 14.514c10.234 10.895 22.918 18.393 36.146 19.494l-4.9678 0.62111c-34.174 0.77202-31.322 14.677-21.783 25.275 6.524 7.2472 18.886 12.143 20.123 16.663 3.7388 13.655-36.152 33.878-57.756 44.086-66.334-9.5037-118.3-57.877-123.18-118.44l5.9981-10.145 5.1587-6.9202 8.6896-1.1803 10.997 5.6036 13.231 18.991 14.882 12.505 16.351 13.175 6.4906 1.4647 8.1462-5.4424 5.9452-7.9656 12.057-14.71 9.5262-10.801 16.356 3.2114zm60.344 34.015c4.9996-0.41147 9.4542-4.6725 14.418-7.1748 4.5266-2.282 8.75-3.9169 12.078-9.7291l15.012-23.213 9.8352-11.229 9.3619-3.6048 17.652 22.178 18.4 20.337c-7.8239 30.366-27.494 56.206-54.157 74.117 8.6334-36.661-18.345-34.429-49.327-40.453-23.481-4.5652-7.3407-16.552 6.7269-21.228z" fill="#f5c491"/>
  <g transform="matrix(2.1047 0 0 2.1047 145.31 399.61)">
   <path class="fil2" d="m131.16 73.632 3.1317-5.1517c0.7341-0.9425 2.0067-1.7533 3.2319-1.7388 1.211 0.0143 2.4657 0.817 3.3109 1.6224l3.6839 4.1156-0.0626 0.062-5.0498-3.893c-1.1589-0.7107-2.5169-0.8567-3.6464 0.0051l-4.5996 4.9784z" fill="#1f1a17"/>
  </g>
  <g transform="matrix(2.1047 0 0 2.1047 145.31 399.61)">
   <path class="fil2" d="m174.1 84.576c-0.796-0.2878-1.5993-0.5453-2.2905-1.0339l-2.8037-2.4909-11.801-14.292-2.273-2.6225-0.2666-0.236-0.0944-0.0697-0.0133-8e-3 -0.5582 0.0527-0.6327 0.1608-0.639 0.2604c-2.5782 1.2988-4.4184 3.7589-6.0886 6.0095l-8.4266 12.284-6.0504 5.3125-0.0352-0.0736 5.5523-5.6391 5.3583-8.3706c2.4173-3.7231 4.664-7.6817 8.361-10.286 0.9184-0.647 2.3828-1.1474 3.5085-0.93 0.3194 0.0617 0.6888 0.4386 0.8915 0.6475l4.8264 6.145 10.162 12.695 2.3638 1.9882 0.9497 0.496z" fill="#1f1a17"/>
  </g>
  <g transform="matrix(2.1047 0 0 2.1047 145.31 399.61)">
   <path class="fil2" d="m114.87 87.044-5.1074-3.6615c-5.0613-3.8679-10.182-8.8027-16.427-10.815-0.8691-0.28-2.2531-0.4544-3.154-0.0371-1.0712 0.496-1.7532 1.4217-2.4958 2.2969l-2.0356 2.4666-6.9605 7.9263c-1.8073 1.9172-3.9799 4.0163-6.5576 4.8585-0.7185 0.2347-1.4804 0.2419-2.234 0.3011v-0.09l2.0999-0.5612c2.4292-1.0363 4.4071-3.0986 6.11-5.0424l6.7505-8.184 4.1555-4.7963c0.768-0.6051 2.0379-0.8335 2.9859-0.679 4.1693 0.6798 7.7785 3.312 11.026 5.8634l11.844 10.154z" fill="#1f1a17"/>
  </g>
  <g transform="matrix(2.1047 0 0 2.1047 145.31 399.61)">
   <path class="fil2" d="m72.914 89.512c-0.6357 0.0327-1.271 0.1053-1.8932-0.0287-1.5009-0.3233-3.0263-1.2175-4.2538-2.0538l-6.359-5.0347-5.0456-4.1237-5.7571-7.4906c-1.8916-2.2401-4.7475-5.3908-8.0731-4.756-2.2565 0.4307-4.2665 2.3938-5.3631 4.3309l-2.6249 6.0773c-0.6469 1.8343-0.9609 4.2927-2.7383 5.506-1.7045 1.1636-3.9453 1.7139-5.8507 2.4222l-0.059-0.1181 5.0939-2.4072c1.1769-0.624 1.8576-2.236 2.2287-3.3869l1.5553-5.5365c1.2699-3.1669 3.4114-6.5632 6.759-7.8202 1.6081-0.6039 3.7153-0.4165 5.1621 0.5134 1.8471 1.1874 3.4794 2.6852 4.8701 4.3846l5.5801 7.6065 4.8262 4.1477c2.9054 2.478 5.6633 5.4003 9.1715 7.0688 0.9126 0.434 1.7897 0.5538 2.7709 0.699z" fill="#1f1a17"/>
  </g>
  <g transform="matrix(2.1047 0 0 2.1047 145.31 399.61)">
   <path class="fil2 str0" d="m23.334 56.576c7.0963-1.8744 13.644-4.5304 20.654-8.4347 0.2612 1.7567 0.4405 3.0524 1.5282 4.5311 0.2792 1.0691 0.4337 2.2672 0.6211 3.4307 0.2123 1.3188 0.4667 2.5932 0.9931 3.5852l0.4923 0.8206c0.713 0.3977 1.2659 0.5939 1.7716 0.6475 0.8428 0.0893 1.6234-0.0802 2.7284-0.5104 1.1161-0.6118 1.6223-0.994 3.378-1.6142-0.0546-0.1095 0.0886-0.2849-0.2081-0.3723 0.383-0.1094 0.898-0.0648 1.2809-0.1742 0.2205-0.2195 0.1771-0.3509 0.0676-0.4603 3.2763-0.5767 6.03-1.6749 9.3636-3.1919 1.3006-0.3334 3.4185-0.5299 5.989-1.4217 2.9697-1.0303 5.3888-2.6818 7.7035-4.6929 0.6091-0.5293 0.5178-0.5533 1.2429-0.1907 0.8899 0.8899 1.9154 1.7644 2.8904 2.5621-0.0452 0.2267 0.0381 0.4859-0.0163 0.7109-0.4768 1.9716-1.2053 3.9321-2.0286 5.8052-0.5904 1.3431-0.0895 1.4884 1.1235 2.59 0.2799 0.2543 0.5978 0.5595 0.9488 0.942-2.5475 0.6629-4.9075-0.1257-4.6229 1.0122-2.0481-0.2399-3.7137 0.4865-5.2847 1.4104-0.4759 0.2799-0.9771 0.5135-1.4926 0.7142-1.606 0.6253-3.1258 0.9089-4.7613 1.0708-1.768 0.175-3.5587-0.0622-5.3375-0.0712-2.1513-0.0109-4.2501 0.0705-6.3496 0.1793-2.8041 0.1453-5.6658 0.5171-8.4635 0.1177-1.4288-0.2039-2.5817-0.7232-3.6979-1.6159 0.555-0.2364 1.0574-0.0804 1.5774-0.5137-0.1693-1.4193-0.0323-1.0233-3.0546-1.6199-2.0746-1.162-1.7091-2.6733-3.58-2.938-0.5863-0.3845-1.1889-0.7085-1.8027-0.9275-2.1892-0.7811-3.3679 1.9558-3.1919 3.6487 0.2279 2.1908 2.2772 3.7587 3.812 7.5386-0.2085 1.4211-0.1955 2.8689 0.5199 3.616 1.1982 1.2513 3.2953 1.6438 4.346-0.4338 0.4123 0.1587 0.8191 0.3089 1.1117 0.2623s0.4709-0.29 0.4263-0.9188c0.5231-0.0242 0.8094 0.0986 1.0207 0.2167 0.3796 0.2123 0.2942 0.5566 0.5689 0.7081 0.6046 0.3334 1.2515 0.2145 1.1093-0.7303 1.9711-0.6572 10.03 1.3252 13.488 2.0602 0.5626 0.1196 1.1386 0.1545 1.7017 0.2685 2.2483 0.455 4.2432 0.4323 6.2067 0.1125 3.8389-0.6254 7.3593-2.3237 11.261-2.6023 0.3009 0.659 0.1655 1.5107 0.1747 2.0918 0.0151 0.9436 0.0477 1.7752 0.159 2.526 0.3079 2.0757 1.2182 3.5336 4.0278 5.0322 3.6555-2.0106 6.4301-2.5199 10.24-2.3252 1.7551 0.0459 8.7346 0.9236 12.574 0.6839 2.76-1.2342 5.0571-2.5542 7.3415-3.889 3.3967-1.9847 5.4372-5.745 8.5786-6.615 2.9321-0.674 5.3912-2.2819 7.8859-3.8504 4.2929-2.699 7.2851-6.7335 9.6541-11.042 0.3435-0.6248 0.6334-1.1032 1.0062-1.8487 0.5288-0.5789 0.8125-1.7395 0.9847-2.9427 1.2377-1.9436 1.434-3.4553 1.1373-5.4785-0.1641-0.9301-0.2266-2.1143-0.3907-3.0443-0.3753-0.7621-0.7505-1.4733-1.024-1.7778-0.0255-0.4891-0.1073-1.0302-0.1432-1.5213-0.3467-4.7477-1.156-9.5839-2.0413-14.45-0.3496-1.5728-0.9712-2.5487-1.8053-3.939l-1.1819-1.4542c1.6224-0.4795 3.7173-0.7708 6.622-0.7708 3.421 0 4.8671-3.8391 9.8718-3.8391-17.916-34.167-121.91-22.256-135.19 44.972l5.4844-1.6453h2e-4zm24.976-10.963c6.4466-3.9444 13.422-8.9547 21.641-15.362-0.2743 1.9195 4.9359 1.0969 6.0328 0.8227 6.3511-0.285 12.847-0.7876 19.488-1.5078 0.1375 1.1883 0.394 2.3071 0.7401 3.386 0.8007 2.4957 1.9832 4.4814 3.4842 6.8073 0.6509 1.0085 2.213 2.2655 3.9342 3.3096 2.8473 1.7271 4.8273 3.5171 6.8517 5.1307l4.4314 2.2978c0.5044 0.2929 1.2211 0.6193 1.3305 1.1803 0.1556 0.7988 0.3102 1.285 0.2483 2.1646-0.7112 0.7582-1.3716 1.5164-2.2353 2.0712-0.2073-0.0586-0.1095-0.2188-0.1641-0.3282h-0.6565c-0.2766 0.2399-0.5693 0.416-0.8725 0.5494-0.5592 0.2461-1.1548 0.398-1.7535 0.4862-0.2189-0.1642-0.4377-0.3791-0.6565-0.5433-0.766 0.1825-1.355 0.2763-2.1209-0.0834 0.1523-1.5111-2.1748-0.5795-2.4658-0.7035 0.0363-0.7821-0.4036-1.1082-1.3218-1.0184-0.0548-0.1095-0.1393-0.5171-0.194-0.6266-0.7108-0.703-1.2299-1.2734-1.6766-1.9437-0.6769-1.0155-1.5552-1.0887-2.71-1.5329-2.1497-1.1299-4.1203-2.5136-6.0202-3.9588-2.4063-1.8304-5.6787-4.6159-7.9641-6.1152-1.3635-0.8945-3.946-1.3389-5.7255-0.2361-1.9169 0.9652-3.7149 2.0012-5.559 2.8339-4.3149 1.9485-8.2394 4.1618-12.167 6.6556-1.5617 0.9252-3.3223 1.7507-5.0431 2.3574-0.2371-0.5318-3.1095-0.9396-3.745-1.5816-0.4924-0.2735-0.8953-0.6663-1.3877-0.9399-0.6565-0.4924-1.9394-1.3129-2.5959-1.8053-0.4377-0.4923-0.4279-0.6268-0.8656-1.1191-0.1176-0.2118-0.2023-0.4289-0.2822-0.6469zm50.49-16.425c7.2162-0.8551 14.601-1.9633 22.155-3.3248 7.3875-1.3315 9.0767-4.0516 11.827-6.1122 0.4414 1.2288 0.9508 2.7291 1.4211 3.8648 0.403 0.9732 0.8588 1.6517 0.8973 1.7701l0.6565 3.939c-0.5258 3.3278-0.3382 6.5488 0.2431 9.8439 0.0387 0.2196-0.1231 0.4397-0.079 0.6601-0.9882-1.1678-1.9439-1.7222-3.1184-1.6761-0.3077-0.1026-0.2216-0.6746-0.5673-0.7189-1.8124-0.2323-3.4204-1.153-2.7152 0.4255-1.2516 0-1.344 0.1094-2.0944 0.8598-0.4924-0.0547-1.0356-0.1602-1.5279-0.2149-0.1095 0-0.3206 0.0508-0.43 0.0508-0.1094 0.1641-0.168 0.3282-0.2774 0.4924 0.0547 0.5471 0.0586 1.2467 0.1133 1.7937-0.6805 1.7011-0.5532 1.4823 0.3907 3.2549-0.15 0.7299 0.2121 1.0448 0.0508 1.4771-1.4655-0.1472-2.0801-0.0174-3.1023 0.2034-1.8321-1.7302-3.7156-1.9811-6.1511-2.1336-3.2044-2.6452-6.7835-3.8803-9.7138-4.1656-0.4378-0.2808-1.943-1.155-2.3806-1.7081-0.2059-0.2072-0.39-0.4074-0.5559-0.6019-1.1618-1.3617-1.4379-2.4465-2.121-3.7278-0.5404-0.713-2.2707-3.1448-2.2353-4.1147l-0.6855-0.1369z" fill="#1f1a17" stroke="#1f1a17" stroke-width=".0762"/>
  </g>
 </g>
</svg>
