<?xml version="1.0" encoding="UTF-8"?>
<svg viewBox="0 0 1214.7533 648.19727" xmlns="http://www.w3.org/2000/svg">
 <path transform="matrix(.64154 0 0 -.98438 267.53 892.45)" d="m223.09 755.42c0 54.382-27.553 98.467-61.542 98.467s-61.542-44.085-61.542-98.467v-1e-5"/>
 <path transform="matrix(.64154 0 0 -.9375 325.96 857.04)" d="m223.09 755.42c0 54.382-27.553 98.467-61.542 98.467s-61.542-44.085-61.542-98.467v-1e-5"/>
 <path transform="matrix(.64154 0 0 -1 382.81 904.25)" d="m223.09 755.42c0 54.382-27.553 98.467-61.542 98.467s-61.542-44.085-61.542-98.467v-1e-5"/>
 <path transform="matrix(.64154 0 0 -.90625 438.09 833.43)" d="m223.09 755.42c0 54.382-27.553 98.467-61.542 98.467s-61.542-44.085-61.542-98.467v-1e-5"/>
 <path transform="matrix(.64154 0 0 -.95313 493.36 868.84)" d="m223.09 755.42c0 54.382-27.553 98.467-61.542 98.467s-61.542-44.085-61.542-98.467v-1e-5"/>
 <path transform="matrix(.89816 0 0 .74074 477.37 -417.47)" d="m-95.39 610.8c0 22.942-13.777 41.541-30.771 41.541s-30.771-18.598-30.771-41.541 13.777-41.541 30.771-41.541c13.927 0 26.118 12.628 29.722 30.789"/>
 <path transform="matrix(.76985 0 0 .64815 521.99 -355.53)" d="m-95.39 610.8c0 22.942-13.777 41.541-30.771 41.541s-30.771-18.598-30.771-41.541 13.777-41.541 30.771-41.541c13.927 0 26.118 12.628 29.722 30.789"/>
 <path transform="matrix(.74333 .19515 -.1929 .69734 702.79 -371.73)" d="m-95.39 610.8c0 22.942-13.777 41.541-30.771 41.541s-30.771-18.598-30.771-41.541 13.777-41.541 30.771-41.541c13.927 0 26.118 12.628 29.722 30.789"/>
 <path transform="matrix(.76206 -.10641 .10518 .71492 586.26 -408.2)" d="m-95.39 610.8c0 22.942-13.777 41.541-30.771 41.541s-30.771-18.598-30.771-41.541 13.777-41.541 30.771-41.541c13.927 0 26.118 12.628 29.722 30.789"/>
 <path transform="matrix(.76985 0 0 .72222 709.92 -403.85)" d="m-95.39 610.8c0 22.942-13.777 41.541-30.771 41.541s-30.771-18.598-30.771-41.541 13.777-41.541 30.771-41.541c13.927 0 26.118 12.628 29.722 30.789"/>
 <path transform="matrix(.684 .34418 -.34021 .64168 906.89 -311.24)" d="m-95.39 610.8c0 22.942-13.777 41.541-30.771 41.541s-30.771-18.598-30.771-41.541 13.777-41.541 30.771-41.541c13.927 0 26.118 12.628 29.722 30.789"/>
 <g fill="#4d4d4d">
  <path transform="matrix(.63408 -.09754 -.14966 -.97293 94.002 932.91)" d="m223.09 755.42c0 54.382-27.553 98.467-61.542 98.467s-61.542-44.085-61.542-98.467v-1e-5"/>
  <path transform="matrix(.63408 -.09754 -.14254 -.9266 146.37 889.03)" d="m223.09 755.42c0 54.382-27.553 98.467-61.542 98.467s-61.542-44.085-61.542-98.467v-1e-5"/>
  <path transform="matrix(.63408 -.09754 -.15204 -.98837 209.74 927.05)" d="m223.09 755.42c0 54.382-27.553 98.467-61.542 98.467s-61.542-44.085-61.542-98.467v-1e-5"/>
  <path transform="matrix(.63408 -.09754 -.13779 -.89571 253.61 848.65)" d="m223.09 755.42c0 54.382-27.553 98.467-61.542 98.467s-61.542-44.085-61.542-98.467v-1e-5"/>
  <path transform="matrix(.63408 -.09754 -.14491 -.94204 313.62 875.24)" d="m223.09 755.42c0 54.382-27.553 98.467-61.542 98.467s-61.542-44.085-61.542-98.467v-1e-5"/>
  <path transform="matrix(.88772 -.13656 .11262 .73213 102.25 -393.68)" d="m-95.39 610.8c0 22.942-13.777 41.541-30.771 41.541s-30.771-18.598-30.771-41.541 13.777-41.541 30.771-41.541c13.927 0 26.118 12.628 29.722 30.789"/>
  <path transform="matrix(.7609 -.11705 .09854 .64061 155.76 -339.24)" d="m-95.39 610.8c0 22.942-13.777 41.541-30.771 41.541s-30.771-18.598-30.771-41.541 13.777-41.541 30.771-41.541c13.927 0 26.118 12.628 29.722 30.789"/>
  <path transform="matrix(.76436 .07987 -.08463 .71857 332 -382.74)" d="m-95.39 610.8c0 22.942-13.777 41.541-30.771 41.541s-30.771-18.598-30.771-41.541 13.777-41.541 30.771-41.541c13.927 0 26.118 12.628 29.722 30.789"/>
  <path transform="matrix(.73703 -.22104 .21265 .69061 211.28 -401.07)" d="m-95.39 610.8c0 22.942-13.777 41.541-30.771 41.541s-30.771-18.598-30.771-41.541 13.777-41.541 30.771-41.541c13.927 0 26.118 12.628 29.722 30.789"/>
  <path transform="matrix(.7609 -.11705 .10981 .71383 334.16 -415.58)" d="m-95.39 610.8c0 22.942-13.777 41.541-30.771 41.541s-30.771-18.598-30.771-41.541 13.777-41.541 30.771-41.541c13.927 0 26.118 12.628 29.722 30.789"/>
  <path transform="matrix(.72838 .23618 -.23869 .68595 542.92 -353.98)" d="m-95.39 610.8c0 22.942-13.777 41.541-30.771 41.541s-30.771-18.598-30.771-41.541 13.777-41.541 30.771-41.541c13.927 0 26.118 12.628 29.722 30.789"/>
 </g>
 <g fill="#333">
  <path transform="matrix(.64154 0 0 -.98438 561.52 900.14)" d="m223.09 755.42c0 54.382-27.553 98.467-61.542 98.467s-61.542-44.085-61.542-98.467v-1e-5"/>
  <path transform="matrix(.64154 0 0 -.9375 619.95 864.73)" d="m223.09 755.42c0 54.382-27.553 98.467-61.542 98.467s-61.542-44.085-61.542-98.467v-1e-5"/>
  <path transform="matrix(.64154 0 0 -1 676.8 911.94)" d="m223.09 755.42c0 54.382-27.553 98.467-61.542 98.467s-61.542-44.085-61.542-98.467v-1e-5"/>
  <path transform="matrix(.64154 0 0 -.90625 732.08 841.12)" d="m223.09 755.42c0 54.382-27.553 98.467-61.542 98.467s-61.542-44.085-61.542-98.467v-1e-5"/>
  <path transform="matrix(.64154 0 0 -.95313 787.35 876.53)" d="m223.09 755.42c0 54.382-27.553 98.467-61.542 98.467s-61.542-44.085-61.542-98.467v-1e-5"/>
  <path transform="matrix(.89816 0 0 .74074 771.36 -409.78)" d="m-95.39 610.8c0 22.942-13.777 41.541-30.771 41.541s-30.771-18.598-30.771-41.541 13.777-41.541 30.771-41.541c13.927 0 26.118 12.628 29.722 30.789"/>
  <path transform="matrix(.76985 0 0 .64815 815.97 -347.84)" d="m-95.39 610.8c0 22.942-13.777 41.541-30.771 41.541s-30.771-18.598-30.771-41.541 13.777-41.541 30.771-41.541c13.927 0 26.118 12.628 29.722 30.789"/>
  <path transform="matrix(.74333 .19515 -.1929 .69734 996.78 -364.04)" d="m-95.39 610.8c0 22.942-13.777 41.541-30.771 41.541s-30.771-18.598-30.771-41.541 13.777-41.541 30.771-41.541c13.927 0 26.118 12.628 29.722 30.789"/>
  <path transform="matrix(.76206 -.10641 .10518 .71492 880.25 -400.51)" d="m-95.39 610.8c0 22.942-13.777 41.541-30.771 41.541s-30.771-18.598-30.771-41.541 13.777-41.541 30.771-41.541c13.927 0 26.118 12.628 29.722 30.789"/>
  <path transform="matrix(.76985 0 0 .72222 1003.9 -396.16)" d="m-95.39 610.8c0 22.942-13.777 41.541-30.771 41.541s-30.771-18.598-30.771-41.541 13.777-41.541 30.771-41.541c13.927 0 26.118 12.628 29.722 30.789"/>
  <path transform="matrix(.684 .34418 -.34021 .64168 1200.9 -303.54)" d="m-95.39 610.8c0 22.942-13.777 41.541-30.771 41.541s-30.771-18.598-30.771-41.541 13.777-41.541 30.771-41.541c13.927 0 26.118 12.628 29.722 30.789"/>
 </g>
 <g fill="#1a1a1a">
  <path transform="matrix(.63731 .07357 .11288 -.97788 747.62 897.51)" d="m223.09 755.42c0 54.382-27.553 98.467-61.542 98.467s-61.542-44.085-61.542-98.467v-1e-5"/>
  <path transform="matrix(.63731 .07357 .10751 -.93132 809.73 869.03)" d="m223.09 755.42c0 54.382-27.553 98.467-61.542 98.467s-61.542-44.085-61.542-98.467v-1e-5"/>
  <path transform="matrix(.63731 .07357 .11467 -.9934 860.79 922.45)" d="m223.09 755.42c0 54.382-27.553 98.467-61.542 98.467s-61.542-44.085-61.542-98.467v-1e-5"/>
  <path transform="matrix(.63731 .07357 .10392 -.90027 923.82 858.44)" d="m223.09 755.42c0 54.382-27.553 98.467-61.542 98.467s-61.542-44.085-61.542-98.467v-1e-5"/>
  <path transform="matrix(.63731 .07357 .1093 -.94684 974.67 899.95)" d="m223.09 755.42c0 54.382-27.553 98.467-61.542 98.467s-61.542-44.085-61.542-98.467v-1e-5"/>
  <path transform="matrix(.89224 .10299 -.08494 .73585 1106.3 -379.7)" d="m-95.39 610.8c0 22.942-13.777 41.541-30.771 41.541s-30.771-18.598-30.771-41.541 13.777-41.541 30.771-41.541c13.927 0 26.118 12.628 29.722 30.789"/>
  <path transform="matrix(.76477 .08828 -.07432 .64387 1143.5 -313.06)" d="m-95.39 610.8c0 22.942-13.777 41.541-30.771 41.541s-30.771-18.598-30.771-41.541 13.777-41.541 30.771-41.541c13.927 0 26.118 12.628 29.722 30.789"/>
  <path transform="matrix(.71605 .2791 -.27159 .67062 1325 -308.41)" d="m-95.39 610.8c0 22.942-13.777 41.541-30.771 41.541s-30.771-18.598-30.771-41.541 13.777-41.541 30.771-41.541c13.927 0 26.118 12.628 29.722 30.789"/>
  <path transform="matrix(.76924 -.01832 .02251 .72226 1213.4 -358.01)" d="m-95.39 610.8c0 22.942-13.777 41.541-30.771 41.541s-30.771-18.598-30.771-41.541 13.777-41.541 30.771-41.541c13.927 0 26.118 12.628 29.722 30.789"/>
  <path transform="matrix(.76477 .08828 -.08282 .71746 1335.7 -339.51)" d="m-95.39 610.8c0 22.942-13.777 41.541-30.771 41.541s-30.771-18.598-30.771-41.541 13.777-41.541 30.771-41.541c13.927 0 26.118 12.628 29.722 30.789"/>
  <path transform="matrix(.64002 .42035 -.41154 .59844 1520.8 -224.92)" d="m-95.39 610.8c0 22.942-13.777 41.541-30.771 41.541s-30.771-18.598-30.771-41.541 13.777-41.541 30.771-41.541c13.927 0 26.118 12.628 29.722 30.789"/>
 </g>
 <g fill="#808080">
  <path transform="matrix(.64154 0 0 -.98438 303.81 958.6)" d="m223.09 755.42c0 54.382-27.553 98.467-61.542 98.467s-61.542-44.085-61.542-98.467v-1e-5"/>
  <path transform="matrix(.64154 0 0 -.9375 362.24 923.19)" d="m223.09 755.42c0 54.382-27.553 98.467-61.542 98.467s-61.542-44.085-61.542-98.467v-1e-5"/>
  <path transform="matrix(.64154 0 0 -1 419.1 970.41)" d="m223.09 755.42c0 54.382-27.553 98.467-61.542 98.467s-61.542-44.085-61.542-98.467v-1e-5"/>
  <path transform="matrix(.64154 0 0 -.90625 474.37 899.59)" d="m223.09 755.42c0 54.382-27.553 98.467-61.542 98.467s-61.542-44.085-61.542-98.467v-1e-5"/>
  <path transform="matrix(.64154 0 0 -.95313 529.65 935)" d="m223.09 755.42c0 54.382-27.553 98.467-61.542 98.467s-61.542-44.085-61.542-98.467v-1e-5"/>
  <path transform="matrix(.89816 0 0 .74074 513.66 -351.31)" d="m-95.39 610.8c0 22.942-13.777 41.541-30.771 41.541s-30.771-18.598-30.771-41.541 13.777-41.541 30.771-41.541c13.927 0 26.118 12.628 29.722 30.789"/>
  <path transform="matrix(.76985 0 0 .64815 558.27 -289.37)" d="m-95.39 610.8c0 22.942-13.777 41.541-30.771 41.541s-30.771-18.598-30.771-41.541 13.777-41.541 30.771-41.541c13.927 0 26.118 12.628 29.722 30.789"/>
  <path transform="matrix(.74333 .19515 -.1929 .69734 739.08 -305.57)" d="m-95.39 610.8c0 22.942-13.777 41.541-30.771 41.541s-30.771-18.598-30.771-41.541 13.777-41.541 30.771-41.541c13.927 0 26.118 12.628 29.722 30.789"/>
  <path transform="matrix(.76206 -.10641 .10518 .71492 622.54 -342.04)" d="m-95.39 610.8c0 22.942-13.777 41.541-30.771 41.541s-30.771-18.598-30.771-41.541 13.777-41.541 30.771-41.541c13.927 0 26.118 12.628 29.722 30.789"/>
  <path transform="matrix(.76985 0 0 .72222 746.2 -337.69)" d="m-95.39 610.8c0 22.942-13.777 41.541-30.771 41.541s-30.771-18.598-30.771-41.541 13.777-41.541 30.771-41.541c13.927 0 26.118 12.628 29.722 30.789"/>
  <path transform="matrix(.684 .34418 -.34021 .64168 943.17 -245.08)" d="m-95.39 610.8c0 22.942-13.777 41.541-30.771 41.541s-30.771-18.598-30.771-41.541 13.777-41.541 30.771-41.541c13.927 0 26.118 12.628 29.722 30.789"/>
 </g>
 <g fill="#333">
  <path transform="matrix(-.64154 0 0 -.98438 419.58 952.45)" d="m223.09 755.42c0 54.382-27.553 98.467-61.542 98.467s-61.542-44.085-61.542-98.467v-1e-5"/>
  <path transform="matrix(-.64154 0 0 -.9375 361.14 917.04)" d="m223.09 755.42c0 54.382-27.553 98.467-61.542 98.467s-61.542-44.085-61.542-98.467v-1e-5"/>
  <path transform="matrix(-.64154 0 0 -1 304.29 964.25)" d="m223.09 755.42c0 54.382-27.553 98.467-61.542 98.467s-61.542-44.085-61.542-98.467v-1e-5"/>
  <path transform="matrix(-.64154 0 0 -.90625 249.02 893.43)" d="m223.09 755.42c0 54.382-27.553 98.467-61.542 98.467s-61.542-44.085-61.542-98.467v-1e-5"/>
  <path transform="matrix(-.64154 0 0 -.95313 193.74 928.84)" d="m223.09 755.42c0 54.382-27.553 98.467-61.542 98.467s-61.542-44.085-61.542-98.467v-1e-5"/>
  <path transform="matrix(-.89816 0 0 .74074 209.73 -357.47)" d="m-95.39 610.8c0 22.942-13.777 41.541-30.771 41.541s-30.771-18.598-30.771-41.541 13.777-41.541 30.771-41.541c13.927 0 26.118 12.628 29.722 30.789"/>
  <path transform="matrix(-.76985 0 0 .64815 165.12 -295.53)" d="m-95.39 610.8c0 22.942-13.777 41.541-30.771 41.541s-30.771-18.598-30.771-41.541 13.777-41.541 30.771-41.541c13.927 0 26.118 12.628 29.722 30.789"/>
  <path transform="matrix(-.74333 .19515 .1929 .69734 -15.687 -311.73)" d="m-95.39 610.8c0 22.942-13.777 41.541-30.771 41.541s-30.771-18.598-30.771-41.541 13.777-41.541 30.771-41.541c13.927 0 26.118 12.628 29.722 30.789"/>
  <path transform="matrix(-.76206 -.10641 -.10518 .71492 100.85 -348.19)" d="m-95.39 610.8c0 22.942-13.777 41.541-30.771 41.541s-30.771-18.598-30.771-41.541 13.777-41.541 30.771-41.541c13.927 0 26.118 12.628 29.722 30.789"/>
  <path transform="matrix(-.76985 0 0 .72222 -22.814 -343.85)" d="m-95.39 610.8c0 22.942-13.777 41.541-30.771 41.541s-30.771-18.598-30.771-41.541 13.777-41.541 30.771-41.541c13.927 0 26.118 12.628 29.722 30.789"/>
  <path transform="matrix(-.684 .34418 .34021 .64168 -219.78 -251.23)" d="m-95.39 610.8c0 22.942-13.777 41.541-30.771 41.541s-30.771-18.598-30.771-41.541 13.777-41.541 30.771-41.541c13.927 0 26.118 12.628 29.722 30.789"/>
 </g>
 <g fill="#b3b3b3">
  <path transform="matrix(-.64154 0 0 -.98438 1045 966.3)" d="m223.09 755.42c0 54.382-27.553 98.467-61.542 98.467s-61.542-44.085-61.542-98.467v-1e-5"/>
  <path transform="matrix(-.64154 0 0 -.9375 986.53 930.89)" d="m223.09 755.42c0 54.382-27.553 98.467-61.542 98.467s-61.542-44.085-61.542-98.467v-1e-5"/>
  <path transform="matrix(-.64154 0 0 -1 929.68 978.1)" d="m223.09 755.42c0 54.382-27.553 98.467-61.542 98.467s-61.542-44.085-61.542-98.467v-1e-5"/>
  <path transform="matrix(-.64154 0 0 -.90625 874.41 907.28)" d="m223.09 755.42c0 54.382-27.553 98.467-61.542 98.467s-61.542-44.085-61.542-98.467v-1e-5"/>
  <path transform="matrix(-.64154 0 0 -.95313 819.13 942.69)" d="m223.09 755.42c0 54.382-27.553 98.467-61.542 98.467s-61.542-44.085-61.542-98.467v-1e-5"/>
  <path transform="matrix(-.89816 0 0 .74074 835.12 -343.62)" d="m-95.39 610.8c0 22.942-13.777 41.541-30.771 41.541s-30.771-18.598-30.771-41.541 13.777-41.541 30.771-41.541c13.927 0 26.118 12.628 29.722 30.789"/>
  <path transform="matrix(-.76985 0 0 .64815 790.51 -281.68)" d="m-95.39 610.8c0 22.942-13.777 41.541-30.771 41.541s-30.771-18.598-30.771-41.541 13.777-41.541 30.771-41.541c13.927 0 26.118 12.628 29.722 30.789"/>
  <path transform="matrix(-.74333 .19515 .1929 .69734 609.7 -297.88)" d="m-95.39 610.8c0 22.942-13.777 41.541-30.771 41.541s-30.771-18.598-30.771-41.541 13.777-41.541 30.771-41.541c13.927 0 26.118 12.628 29.722 30.789"/>
  <path transform="matrix(-.76206 -.10641 -.10518 .71492 726.23 -334.35)" d="m-95.39 610.8c0 22.942-13.777 41.541-30.771 41.541s-30.771-18.598-30.771-41.541 13.777-41.541 30.771-41.541c13.927 0 26.118 12.628 29.722 30.789"/>
  <path transform="matrix(-.76985 0 0 .72222 602.57 -330)" d="m-95.39 610.8c0 22.942-13.777 41.541-30.771 41.541s-30.771-18.598-30.771-41.541 13.777-41.541 30.771-41.541c13.927 0 26.118 12.628 29.722 30.789"/>
  <path transform="matrix(-.684 .34418 .34021 .64168 405.61 -237.39)" d="m-95.39 610.8c0 22.942-13.777 41.541-30.771 41.541s-30.771-18.598-30.771-41.541 13.777-41.541 30.771-41.541c13.927 0 26.118 12.628 29.722 30.789"/>
 </g>
 <g fill="#333">
  <path transform="matrix(.63535 .08894 .13647 -.97487 709.43 946.17)" d="m223.09 755.42c0 54.382-27.553 98.467-61.542 98.467s-61.542-44.085-61.542-98.467v-1e-5"/>
  <path transform="matrix(.63535 .08894 .12997 -.92845 772.21 919.2)" d="m223.09 755.42c0 54.382-27.553 98.467-61.542 98.467s-61.542-44.085-61.542-98.467v-1e-5"/>
  <path transform="matrix(.63535 .08894 .13864 -.99034 821.97 973.84)" d="m223.09 755.42c0 54.382-27.553 98.467-61.542 98.467s-61.542-44.085-61.542-98.467v-1e-5"/>
  <path transform="matrix(.63535 .08894 .12564 -.8975 886.53 911.37)" d="m223.09 755.42c0 54.382-27.553 98.467-61.542 98.467s-61.542-44.085-61.542-98.467v-1e-5"/>
  <path transform="matrix(.63535 .08894 .13214 -.94392 936.36 954.1)" d="m223.09 755.42c0 54.382-27.553 98.467-61.542 98.467s-61.542-44.085-61.542-98.467v-1e-5"/>
  <path transform="matrix(.88949 .12452 -.10269 .73359 1098.9 -322)" d="m-95.39 610.8c0 22.942-13.777 41.541-30.771 41.541s-30.771-18.598-30.771-41.541 13.777-41.541 30.771-41.541c13.927 0 26.118 12.628 29.722 30.789"/>
  <path transform="matrix(.76242 .10673 -.08986 .64189 1134.5 -254.48)" d="m-95.39 610.8c0 22.942-13.777 41.541-30.771 41.541s-30.771-18.598-30.771-41.541 13.777-41.541 30.771-41.541c13.927 0 26.118 12.628 29.722 30.789"/>
  <path transform="matrix(.7091 .29632 -.28771 .66387 1315.8 -245.45)" d="m-95.39 610.8c0 22.942-13.777 41.541-30.771 41.541s-30.771-18.598-30.771-41.541 13.777-41.541 30.771-41.541c13.927 0 26.118 12.628 29.722 30.789"/>
  <path transform="matrix(.76946 .00027 .00505 .72259 1205.4 -297.72)" d="m-95.39 610.8c0 22.942-13.777 41.541-30.771 41.541s-30.771-18.598-30.771-41.541 13.777-41.541 30.771-41.541c13.927 0 26.118 12.628 29.722 30.789"/>
  <path transform="matrix(.76242 .10673 -.10013 .71525 1327.3 -276.28)" d="m-95.39 610.8c0 22.942-13.777 41.541-30.771 41.541s-30.771-18.598-30.771-41.541 13.777-41.541 30.771-41.541c13.927 0 26.118 12.628 29.722 30.789"/>
  <path transform="matrix(.62968 .43568 -.42588 .58832 1509.5 -157.25)" d="m-95.39 610.8c0 22.942-13.777 41.541-30.771 41.541s-30.771-18.598-30.771-41.541 13.777-41.541 30.771-41.541c13.927 0 26.118 12.628 29.722 30.789"/>
 </g>
 <g fill="#666">
  <path transform="matrix(.64154 0 0 -.98438 204.32 1006.3)" d="m223.09 755.42c0 54.382-27.553 98.467-61.542 98.467s-61.542-44.085-61.542-98.467v-1e-5"/>
  <path transform="matrix(.64154 0 0 -.9375 262.75 970.89)" d="m223.09 755.42c0 54.382-27.553 98.467-61.542 98.467s-61.542-44.085-61.542-98.467v-1e-5"/>
  <path transform="matrix(.64154 0 0 -1 319.6 1018.1)" d="m223.09 755.42c0 54.382-27.553 98.467-61.542 98.467s-61.542-44.085-61.542-98.467v-1e-5"/>
  <path transform="matrix(.64154 0 0 -.90625 374.88 947.28)" d="m223.09 755.42c0 54.382-27.553 98.467-61.542 98.467s-61.542-44.085-61.542-98.467v-1e-5"/>
  <path transform="matrix(.64154 0 0 -.95313 430.15 982.69)" d="m223.09 755.42c0 54.382-27.553 98.467-61.542 98.467s-61.542-44.085-61.542-98.467v-1e-5"/>
  <path transform="matrix(.89816 0 0 .74074 414.16 -303.62)" d="m-95.39 610.8c0 22.942-13.777 41.541-30.771 41.541s-30.771-18.598-30.771-41.541 13.777-41.541 30.771-41.541c13.927 0 26.118 12.628 29.722 30.789"/>
  <path transform="matrix(.76985 0 0 .64815 458.78 -241.68)" d="m-95.39 610.8c0 22.942-13.777 41.541-30.771 41.541s-30.771-18.598-30.771-41.541 13.777-41.541 30.771-41.541c13.927 0 26.118 12.628 29.722 30.789"/>
  <path transform="matrix(.74333 .19515 -.1929 .69734 639.58 -257.88)" d="m-95.39 610.8c0 22.942-13.777 41.541-30.771 41.541s-30.771-18.598-30.771-41.541 13.777-41.541 30.771-41.541c13.927 0 26.118 12.628 29.722 30.789"/>
  <path transform="matrix(.76206 -.10641 .10518 .71492 523.05 -294.35)" d="m-95.39 610.8c0 22.942-13.777 41.541-30.771 41.541s-30.771-18.598-30.771-41.541 13.777-41.541 30.771-41.541c13.927 0 26.118 12.628 29.722 30.789"/>
  <path transform="matrix(.76985 0 0 .72222 646.71 -290)" d="m-95.39 610.8c0 22.942-13.777 41.541-30.771 41.541s-30.771-18.598-30.771-41.541 13.777-41.541 30.771-41.541c13.927 0 26.118 12.628 29.722 30.789"/>
  <path transform="matrix(.684 .34418 -.34021 .64168 843.68 -197.38)" d="m-95.39 610.8c0 22.942-13.777 41.541-30.771 41.541s-30.771-18.598-30.771-41.541 13.777-41.541 30.771-41.541c13.927 0 26.118 12.628 29.722 30.789"/>
 </g>
 <g fill="#666">
  <path transform="matrix(.64154 0 0 -.98438 472.79 1007.8)" d="m223.09 755.42c0 54.382-27.553 98.467-61.542 98.467s-61.542-44.085-61.542-98.467v-1e-5"/>
  <path transform="matrix(.64154 0 0 -.9375 531.22 972.43)" d="m223.09 755.42c0 54.382-27.553 98.467-61.542 98.467s-61.542-44.085-61.542-98.467v-1e-5"/>
  <path transform="matrix(.64154 0 0 -1 588.08 1019.6)" d="m223.09 755.42c0 54.382-27.553 98.467-61.542 98.467s-61.542-44.085-61.542-98.467v-1e-5"/>
  <path transform="matrix(.64154 0 0 -.90625 643.35 948.82)" d="m223.09 755.42c0 54.382-27.553 98.467-61.542 98.467s-61.542-44.085-61.542-98.467v-1e-5"/>
  <path transform="matrix(.64154 0 0 -.95313 698.63 984.23)" d="m223.09 755.42c0 54.382-27.553 98.467-61.542 98.467s-61.542-44.085-61.542-98.467v-1e-5"/>
  <path transform="matrix(.89816 0 0 .74074 682.64 -302.08)" d="m-95.39 610.8c0 22.942-13.777 41.541-30.771 41.541s-30.771-18.598-30.771-41.541 13.777-41.541 30.771-41.541c13.927 0 26.118 12.628 29.722 30.789"/>
  <path transform="matrix(.76985 0 0 .64815 727.25 -240.14)" d="m-95.39 610.8c0 22.942-13.777 41.541-30.771 41.541s-30.771-18.598-30.771-41.541 13.777-41.541 30.771-41.541c13.927 0 26.118 12.628 29.722 30.789"/>
  <path transform="matrix(.74333 .19515 -.1929 .69734 908.06 -256.34)" d="m-95.39 610.8c0 22.942-13.777 41.541-30.771 41.541s-30.771-18.598-30.771-41.541 13.777-41.541 30.771-41.541c13.927 0 26.118 12.628 29.722 30.789"/>
  <path transform="matrix(.76206 -.10641 .10518 .71492 791.52 -292.81)" d="m-95.39 610.8c0 22.942-13.777 41.541-30.771 41.541s-30.771-18.598-30.771-41.541 13.777-41.541 30.771-41.541c13.927 0 26.118 12.628 29.722 30.789"/>
  <path transform="matrix(.76985 0 0 .72222 915.18 -288.46)" d="m-95.39 610.8c0 22.942-13.777 41.541-30.771 41.541s-30.771-18.598-30.771-41.541 13.777-41.541 30.771-41.541c13.927 0 26.118 12.628 29.722 30.789"/>
  <path transform="matrix(.684 .34418 -.34021 .64168 1112.2 -195.85)" d="m-95.39 610.8c0 22.942-13.777 41.541-30.771 41.541s-30.771-18.598-30.771-41.541 13.777-41.541 30.771-41.541c13.927 0 26.118 12.628 29.722 30.789"/>
 </g>
 <g fill="#666">
  <path transform="matrix(.64154 0 0 -.98438 760.08 1017.1)" d="m223.09 755.42c0 54.382-27.553 98.467-61.542 98.467s-61.542-44.085-61.542-98.467v-1e-5"/>
  <path transform="matrix(.64154 0 0 -.9375 818.51 981.66)" d="m223.09 755.42c0 54.382-27.553 98.467-61.542 98.467s-61.542-44.085-61.542-98.467v-1e-5"/>
  <path transform="matrix(.64154 0 0 -1 875.36 1028.9)" d="m223.09 755.42c0 54.382-27.553 98.467-61.542 98.467s-61.542-44.085-61.542-98.467v-1e-5"/>
  <path transform="matrix(.64154 0 0 -.90625 930.64 958.05)" d="m223.09 755.42c0 54.382-27.553 98.467-61.542 98.467s-61.542-44.085-61.542-98.467v-1e-5"/>
  <path transform="matrix(.64154 0 0 -.95313 985.91 993.46)" d="m223.09 755.42c0 54.382-27.553 98.467-61.542 98.467s-61.542-44.085-61.542-98.467v-1e-5"/>
  <path transform="matrix(.89816 0 0 .74074 969.92 -292.85)" d="m-95.39 610.8c0 22.942-13.777 41.541-30.771 41.541s-30.771-18.598-30.771-41.541 13.777-41.541 30.771-41.541c13.927 0 26.118 12.628 29.722 30.789"/>
  <path transform="matrix(.76985 0 0 .64815 1014.5 -230.91)" d="m-95.39 610.8c0 22.942-13.777 41.541-30.771 41.541s-30.771-18.598-30.771-41.541 13.777-41.541 30.771-41.541c13.927 0 26.118 12.628 29.722 30.789"/>
  <path transform="matrix(.74333 .19515 -.1929 .69734 1195.3 -247.11)" d="m-95.39 610.8c0 22.942-13.777 41.541-30.771 41.541s-30.771-18.598-30.771-41.541 13.777-41.541 30.771-41.541c13.927 0 26.118 12.628 29.722 30.789"/>
  <path transform="matrix(.76206 -.10641 .10518 .71492 1078.8 -283.58)" d="m-95.39 610.8c0 22.942-13.777 41.541-30.771 41.541s-30.771-18.598-30.771-41.541 13.777-41.541 30.771-41.541c13.927 0 26.118 12.628 29.722 30.789"/>
  <path transform="matrix(.76985 0 0 .72222 1202.5 -279.23)" d="m-95.39 610.8c0 22.942-13.777 41.541-30.771 41.541s-30.771-18.598-30.771-41.541 13.777-41.541 30.771-41.541c13.927 0 26.118 12.628 29.722 30.789"/>
  <path transform="matrix(.684 .34418 -.34021 .64168 1399.4 -186.61)" d="m-95.39 610.8c0 22.942-13.777 41.541-30.771 41.541s-30.771-18.598-30.771-41.541 13.777-41.541 30.771-41.541c13.927 0 26.118 12.628 29.722 30.789"/>
 </g>
 <g fill="#666">
  <path transform="matrix(-.64154 0 0 -.98438 370.62 993.99)" d="m223.09 755.42c0 54.382-27.553 98.467-61.542 98.467s-61.542-44.085-61.542-98.467v-1e-5"/>
  <path transform="matrix(-.64154 0 0 -.9375 312.19 958.58)" d="m223.09 755.42c0 54.382-27.553 98.467-61.542 98.467s-61.542-44.085-61.542-98.467v-1e-5"/>
  <path transform="matrix(-.64154 0 0 -1 255.33 1005.8)" d="m223.09 755.42c0 54.382-27.553 98.467-61.542 98.467s-61.542-44.085-61.542-98.467v-1e-5"/>
  <path transform="matrix(-.64154 0 0 -.90625 200.06 934.97)" d="m223.09 755.42c0 54.382-27.553 98.467-61.542 98.467s-61.542-44.085-61.542-98.467v-1e-5"/>
  <path transform="matrix(-.64154 0 0 -.95313 144.79 970.38)" d="m223.09 755.42c0 54.382-27.553 98.467-61.542 98.467s-61.542-44.085-61.542-98.467v-1e-5"/>
  <path transform="matrix(-.89816 0 0 .74074 160.78 -315.93)" d="m-95.39 610.8c0 22.942-13.777 41.541-30.771 41.541s-30.771-18.598-30.771-41.541 13.777-41.541 30.771-41.541c13.927 0 26.118 12.628 29.722 30.789"/>
  <path transform="matrix(-.76985 0 0 .64815 116.16 -253.99)" d="m-95.39 610.8c0 22.942-13.777 41.541-30.771 41.541s-30.771-18.598-30.771-41.541 13.777-41.541 30.771-41.541c13.927 0 26.118 12.628 29.722 30.789"/>
  <path transform="matrix(-.74333 .19515 .1929 .69734 -64.644 -270.18)" d="m-95.39 610.8c0 22.942-13.777 41.541-30.771 41.541s-30.771-18.598-30.771-41.541 13.777-41.541 30.771-41.541c13.927 0 26.118 12.628 29.722 30.789"/>
  <path transform="matrix(-.76206 -.10641 -.10518 .71492 51.889 -306.65)" d="m-95.39 610.8c0 22.942-13.777 41.541-30.771 41.541s-30.771-18.598-30.771-41.541 13.777-41.541 30.771-41.541c13.927 0 26.118 12.628 29.722 30.789"/>
  <path transform="matrix(-.76985 0 0 .72222 -71.771 -302.31)" d="m-95.39 610.8c0 22.942-13.777 41.541-30.771 41.541s-30.771-18.598-30.771-41.541 13.777-41.541 30.771-41.541c13.927 0 26.118 12.628 29.722 30.789"/>
  <path transform="matrix(-.684 .34418 .34021 .64168 -268.74 -209.69)" d="m-95.39 610.8c0 22.942-13.777 41.541-30.771 41.541s-30.771-18.598-30.771-41.541 13.777-41.541 30.771-41.541c13.927 0 26.118 12.628 29.722 30.789"/>
 </g>
 <g fill="#808080">
  <path transform="matrix(-.64154 0 0 -.98438 635.94 1046.3)" d="m223.09 755.42c0 54.382-27.553 98.467-61.542 98.467s-61.542-44.085-61.542-98.467v-1e-5"/>
  <path transform="matrix(-.64154 0 0 -.9375 577.5 1010.9)" d="m223.09 755.42c0 54.382-27.553 98.467-61.542 98.467s-61.542-44.085-61.542-98.467v-1e-5"/>
  <path transform="matrix(-.64154 0 0 -1 520.65 1058.1)" d="m223.09 755.42c0 54.382-27.553 98.467-61.542 98.467s-61.542-44.085-61.542-98.467v-1e-5"/>
  <path transform="matrix(-.64154 0 0 -.90625 465.38 987.28)" d="m223.09 755.42c0 54.382-27.553 98.467-61.542 98.467s-61.542-44.085-61.542-98.467v-1e-5"/>
  <path transform="matrix(-.64154 0 0 -.95313 410.1 1022.7)" d="m223.09 755.42c0 54.382-27.553 98.467-61.542 98.467s-61.542-44.085-61.542-98.467v-1e-5"/>
  <path transform="matrix(-.89816 0 0 .74074 426.09 -263.62)" d="m-95.39 610.8c0 22.942-13.777 41.541-30.771 41.541s-30.771-18.598-30.771-41.541 13.777-41.541 30.771-41.541c13.927 0 26.118 12.628 29.722 30.789"/>
  <path transform="matrix(-.76985 0 0 .64815 381.48 -201.68)" d="m-95.39 610.8c0 22.942-13.777 41.541-30.771 41.541s-30.771-18.598-30.771-41.541 13.777-41.541 30.771-41.541c13.927 0 26.118 12.628 29.722 30.789"/>
  <path transform="matrix(-.74333 .19515 .1929 .69734 200.67 -217.87)" d="m-95.39 610.8c0 22.942-13.777 41.541-30.771 41.541s-30.771-18.598-30.771-41.541 13.777-41.541 30.771-41.541c13.927 0 26.118 12.628 29.722 30.789"/>
  <path transform="matrix(-.76206 -.10641 -.10518 .71492 317.21 -254.34)" d="m-95.39 610.8c0 22.942-13.777 41.541-30.771 41.541s-30.771-18.598-30.771-41.541 13.777-41.541 30.771-41.541c13.927 0 26.118 12.628 29.722 30.789"/>
  <path transform="matrix(-.76985 0 0 .72222 193.55 -250)" d="m-95.39 610.8c0 22.942-13.777 41.541-30.771 41.541s-30.771-18.598-30.771-41.541 13.777-41.541 30.771-41.541c13.927 0 26.118 12.628 29.722 30.789"/>
  <path transform="matrix(-.684 .34418 .34021 .64168 -3.4211 -157.38)" d="m-95.39 610.8c0 22.942-13.777 41.541-30.771 41.541s-30.771-18.598-30.771-41.541 13.777-41.541 30.771-41.541c13.927 0 26.118 12.628 29.722 30.789"/>
 </g>
 <g fill="#808080">
  <path transform="matrix(-.64154 0 0 -.98438 893.36 1046.3)" d="m223.09 755.42c0 54.382-27.553 98.467-61.542 98.467s-61.542-44.085-61.542-98.467v-1e-5"/>
  <path transform="matrix(-.64154 0 0 -.9375 834.92 1010.9)" d="m223.09 755.42c0 54.382-27.553 98.467-61.542 98.467s-61.542-44.085-61.542-98.467v-1e-5"/>
  <path transform="matrix(-.64154 0 0 -1 778.07 1058.1)" d="m223.09 755.42c0 54.382-27.553 98.467-61.542 98.467s-61.542-44.085-61.542-98.467v-1e-5"/>
  <path transform="matrix(-.64154 0 0 -.90625 722.8 987.28)" d="m223.09 755.42c0 54.382-27.553 98.467-61.542 98.467s-61.542-44.085-61.542-98.467v-1e-5"/>
  <path transform="matrix(-.64154 0 0 -.95313 667.52 1022.7)" d="m223.09 755.42c0 54.382-27.553 98.467-61.542 98.467s-61.542-44.085-61.542-98.467v-1e-5"/>
  <path transform="matrix(-.89816 0 0 .74074 683.51 -263.62)" d="m-95.39 610.8c0 22.942-13.777 41.541-30.771 41.541s-30.771-18.598-30.771-41.541 13.777-41.541 30.771-41.541c13.927 0 26.118 12.628 29.722 30.789"/>
  <path transform="matrix(-.76985 0 0 .64815 638.9 -201.68)" d="m-95.39 610.8c0 22.942-13.777 41.541-30.771 41.541s-30.771-18.598-30.771-41.541 13.777-41.541 30.771-41.541c13.927 0 26.118 12.628 29.722 30.789"/>
  <path transform="matrix(-.74333 .19515 .1929 .69734 458.09 -217.87)" d="m-95.39 610.8c0 22.942-13.777 41.541-30.771 41.541s-30.771-18.598-30.771-41.541 13.777-41.541 30.771-41.541c13.927 0 26.118 12.628 29.722 30.789"/>
  <path transform="matrix(-.76206 -.10641 -.10518 .71492 574.63 -254.34)" d="m-95.39 610.8c0 22.942-13.777 41.541-30.771 41.541s-30.771-18.598-30.771-41.541 13.777-41.541 30.771-41.541c13.927 0 26.118 12.628 29.722 30.789"/>
  <path transform="matrix(-.76985 0 0 .72222 450.97 -250)" d="m-95.39 610.8c0 22.942-13.777 41.541-30.771 41.541s-30.771-18.598-30.771-41.541 13.777-41.541 30.771-41.541c13.927 0 26.118 12.628 29.722 30.789"/>
  <path transform="matrix(-.684 .34418 .34021 .64168 254 -157.38)" d="m-95.39 610.8c0 22.942-13.777 41.541-30.771 41.541s-30.771-18.598-30.771-41.541 13.777-41.541 30.771-41.541c13.927 0 26.118 12.628 29.722 30.789"/>
 </g>
 <g fill="#808080">
  <path transform="matrix(-.62953 -.12357 .1896 -.96594 1016.5 1069.8)" d="m223.09 755.42c0 54.382-27.553 98.467-61.542 98.467s-61.542-44.085-61.542-98.467v-1e-5"/>
  <path transform="matrix(-.62953 -.12357 .18057 -.91995 966 1023.8)" d="m223.09 755.42c0 54.382-27.553 98.467-61.542 98.467s-61.542-44.085-61.542-98.467v-1e-5"/>
  <path transform="matrix(-.62953 -.12357 .19261 -.98128 901.11 1059.2)" d="m223.09 755.42c0 54.382-27.553 98.467-61.542 98.467s-61.542-44.085-61.542-98.467v-1e-5"/>
  <path transform="matrix(-.62953 -.12357 .17455 -.88928 860.52 979.01)" d="m223.09 755.42c0 54.382-27.553 98.467-61.542 98.467s-61.542-44.085-61.542-98.467v-1e-5"/>
  <path transform="matrix(-.62953 -.12357 .18358 -.93528 799.46 1003.1)" d="m223.09 755.42c0 54.382-27.553 98.467-61.542 98.467s-61.542-44.085-61.542-98.467v-1e-5"/>
  <path transform="matrix(-.88134 -.17299 -.14267 .72687 1062.9 -256.03)" d="m-95.39 610.8c0 22.942-13.777 41.541-30.771 41.541s-30.771-18.598-30.771-41.541 13.777-41.541 30.771-41.541c13.927 0 26.118 12.628 29.722 30.789"/>
  <path transform="matrix(-.75544 -.14828 -.12484 .63601 1007.2 -203.84)" d="m-95.39 610.8c0 22.942-13.777 41.541-30.771 41.541s-30.771-18.598-30.771-41.541 13.777-41.541 30.771-41.541c13.927 0 26.118 12.628 29.722 30.789"/>
  <path transform="matrix(-.767 .04833 .05497 .72144 832.89 -254.56)" d="m-95.39 610.8c0 22.942-13.777 41.541-30.771 41.541s-30.771-18.598-30.771-41.541 13.777-41.541 30.771-41.541c13.927 0 26.118 12.628 29.722 30.789"/>
  <path transform="matrix(-.7273 -.2512 -.24091 .68127 954.27 -267.9)" d="m-95.39 610.8c0 22.942-13.777 41.541-30.771 41.541s-30.771-18.598-30.771-41.541 13.777-41.541 30.771-41.541c13.927 0 26.118 12.628 29.722 30.789"/>
  <path transform="matrix(-.75544 -.14828 -.13911 .7087 832.08 -287.46)" d="m-95.39 610.8c0 22.942-13.777 41.541-30.771 41.541s-30.771-18.598-30.771-41.541 13.777-41.541 30.771-41.541c13.927 0 26.118 12.628 29.722 30.789"/>
  <path transform="matrix(-.73749 .20599 .21024 .69519 620.97 -234.51)" d="m-95.39 610.8c0 22.942-13.777 41.541-30.771 41.541s-30.771-18.598-30.771-41.541 13.777-41.541 30.771-41.541c13.927 0 26.118 12.628 29.722 30.789"/>
 </g>
 <g fill="#1a1a1a">
  <path transform="matrix(.64154 0 0 -.98438 -43.627 1046.3)" d="m223.09 755.42c0 54.382-27.553 98.467-61.542 98.467s-61.542-44.085-61.542-98.467v-1e-5"/>
  <path transform="matrix(.64154 0 0 -.9375 14.806 1010.9)" d="m223.09 755.42c0 54.382-27.553 98.467-61.542 98.467s-61.542-44.085-61.542-98.467v-1e-5"/>
  <path transform="matrix(.64154 0 0 -1 71.659 1058.1)" d="m223.09 755.42c0 54.382-27.553 98.467-61.542 98.467s-61.542-44.085-61.542-98.467v-1e-5"/>
  <path transform="matrix(.64154 0 0 -.90625 126.93 987.28)" d="m223.09 755.42c0 54.382-27.553 98.467-61.542 98.467s-61.542-44.085-61.542-98.467v-1e-5"/>
  <path transform="matrix(.64154 0 0 -.95313 182.21 1022.7)" d="m223.09 755.42c0 54.382-27.553 98.467-61.542 98.467s-61.542-44.085-61.542-98.467v-1e-5"/>
  <path transform="matrix(.89816 0 0 .74074 166.22 -263.62)" d="m-95.39 610.8c0 22.942-13.777 41.541-30.771 41.541s-30.771-18.598-30.771-41.541 13.777-41.541 30.771-41.541c13.927 0 26.118 12.628 29.722 30.789"/>
  <path transform="matrix(.76985 0 0 .64815 210.83 -201.68)" d="m-95.39 610.8c0 22.942-13.777 41.541-30.771 41.541s-30.771-18.598-30.771-41.541 13.777-41.541 30.771-41.541c13.927 0 26.118 12.628 29.722 30.789"/>
  <path transform="matrix(.74333 .19515 -.1929 .69734 391.64 -217.87)" d="m-95.39 610.8c0 22.942-13.777 41.541-30.771 41.541s-30.771-18.598-30.771-41.541 13.777-41.541 30.771-41.541c13.927 0 26.118 12.628 29.722 30.789"/>
  <path transform="matrix(.76206 -.10641 .10518 .71492 275.1 -254.34)" d="m-95.39 610.8c0 22.942-13.777 41.541-30.771 41.541s-30.771-18.598-30.771-41.541 13.777-41.541 30.771-41.541c13.927 0 26.118 12.628 29.722 30.789"/>
  <path transform="matrix(.76985 0 0 .72222 398.76 -250)" d="m-95.39 610.8c0 22.942-13.777 41.541-30.771 41.541s-30.771-18.598-30.771-41.541 13.777-41.541 30.771-41.541c13.927 0 26.118 12.628 29.722 30.789"/>
  <path transform="matrix(.684 .34418 -.34021 .64168 595.73 -157.38)" d="m-95.39 610.8c0 22.942-13.777 41.541-30.771 41.541s-30.771-18.598-30.771-41.541 13.777-41.541 30.771-41.541c13.927 0 26.118 12.628 29.722 30.789"/>
 </g>
 <path transform="matrix(.63235 0 0 -.98438 346.76 1060.1)" d="m223.09 755.42a61.542 98.467 0 1 1 -123.08 -1e-5"/>
 <path transform="matrix(.63235 0 0 -.9375 401.24 1024.3)" d="m223.09 755.42a61.542 98.467 0 1 1 -123.08 -1e-5" fill="#00d400"/>
 <path transform="matrix(.63235 0 0 -1 460.39 1072)" d="m223.09 755.42a61.542 98.467 0 1 1 -123.08 -1e-5"/>
 <path transform="matrix(.63235 0 0 -.90625 514.87 1001.1)" d="m223.09 755.42a61.542 98.467 0 1 1 -123.08 -1e-5"/>
 <path transform="matrix(.63235 0 0 -.95313 569.35 1036.5)" d="m223.09 755.42a61.542 98.467 0 1 1 -123.08 -1e-5"/>
 <path transform="matrix(.88529 0 0 .74074 553.59 -249.77)" d="m-95.39 610.8a30.771 41.541 0 1 1 -1.0485 -10.752"/>
 <path transform="matrix(.75882 .07577 0 .64815 603.01 -182.54)" d="m-95.39 610.8a30.771 41.541 0 1 1 -1.0485 -10.752" fill="#00d400"/>
 <path transform="matrix(.73268 .19515 -.19013 .69734 775.78 -204.03)" d="m-95.39 610.8a30.771 41.541 0 1 1 -1.0485 -10.752"/>
 <path transform="matrix(.75115 -.10641 .10367 .71492 660.92 -240.5)" d="m-95.39 610.8a30.771 41.541 0 1 1 -1.0485 -10.752"/>
 <path transform="matrix(.75882 0 0 .72222 782.81 -236.15)" d="m-95.39 610.8a30.771 41.541 0 1 1 -1.0485 -10.752"/>
 <path transform="matrix(.6742 .34418 -.33533 .64168 976.95 -143.54)" d="m-95.39 610.8a30.771 41.541 0 1 1 -1.0485 -10.752"/>
 <g fill="#808080">
  <path transform="matrix(-.63235 0 0 -.98438 412.57 1098.6)" d="m223.09 755.42c0 54.382-27.553 98.467-61.542 98.467s-61.542-44.085-61.542-98.467v-1e-5"/>
  <path transform="matrix(-.63235 0 0 -.9375 354.98 1063.2)" d="m223.09 755.42c0 54.382-27.553 98.467-61.542 98.467s-61.542-44.085-61.542-98.467v-1e-5"/>
  <path transform="matrix(-.63235 0 0 -1 298.94 1110.4)" d="m223.09 755.42c0 54.382-27.553 98.467-61.542 98.467s-61.542-44.085-61.542-98.467v-1e-5"/>
  <path transform="matrix(-.63235 0 0 -.90625 244.45 1039.6)" d="m223.09 755.42c0 54.382-27.553 98.467-61.542 98.467s-61.542-44.085-61.542-98.467v-1e-5"/>
  <path transform="matrix(-.63235 0 0 -.95313 189.97 1075)" d="m223.09 755.42c0 54.382-27.553 98.467-61.542 98.467s-61.542-44.085-61.542-98.467v-1e-5"/>
  <path transform="matrix(-.88529 0 0 .74074 205.73 -211.31)" d="m-95.39 610.8c0 22.942-13.777 41.541-30.771 41.541s-30.771-18.598-30.771-41.541 13.777-41.541 30.771-41.541c13.927 0 26.118 12.628 29.722 30.789"/>
  <path transform="matrix(-.75882 0 0 .64815 161.76 -149.37)" d="m-95.39 610.8c0 22.942-13.777 41.541-30.771 41.541s-30.771-18.598-30.771-41.541 13.777-41.541 30.771-41.541c13.927 0 26.118 12.628 29.722 30.789"/>
  <path transform="matrix(-.73268 .19515 .19013 .69734 -16.458 -165.56)" d="m-95.39 610.8c0 22.942-13.777 41.541-30.771 41.541s-30.771-18.598-30.771-41.541 13.777-41.541 30.771-41.541c13.927 0 26.118 12.628 29.722 30.789"/>
  <path transform="matrix(-.75115 -.10641 -.10367 .71492 98.405 -202.03)" d="m-95.39 610.8c0 22.942-13.777 41.541-30.771 41.541s-30.771-18.598-30.771-41.541 13.777-41.541 30.771-41.541c13.927 0 26.118 12.628 29.722 30.789"/>
  <path transform="matrix(-.75882 0 0 .72222 -23.483 -197.69)" d="m-95.39 610.8c0 22.942-13.777 41.541-30.771 41.541s-30.771-18.598-30.771-41.541 13.777-41.541 30.771-41.541c13.927 0 26.118 12.628 29.722 30.789"/>
  <path transform="matrix(-.6742 .34418 .33533 .64168 -217.63 -105.07)" d="m-95.39 610.8c0 22.942-13.777 41.541-30.771 41.541s-30.771-18.598-30.771-41.541 13.777-41.541 30.771-41.541c13.927 0 26.118 12.628 29.722 30.789"/>
 </g>
 <path transform="matrix(.63235 0 0 -.98438 36.984 1070.9)" d="m223.09 755.42c0 54.382-27.553 98.467-61.542 98.467s-61.542-44.085-61.542-98.467v-1e-5"/>
 <path transform="matrix(.63235 0 0 -.9375 94.58 1035.5)" d="m223.09 755.42c0 54.382-27.553 98.467-61.542 98.467s-61.542-44.085-61.542-98.467v-1e-5"/>
 <path transform="matrix(.63235 0 0 -1 150.62 1082.7)" d="m223.09 755.42c0 54.382-27.553 98.467-61.542 98.467s-61.542-44.085-61.542-98.467v-1e-5"/>
 <path transform="matrix(.63235 0 0 -.90625 205.1 1011.9)" d="m223.09 755.42c0 54.382-27.553 98.467-61.542 98.467s-61.542-44.085-61.542-98.467v-1e-5"/>
 <path transform="matrix(.63235 0 0 -.95313 259.58 1047.3)" d="m223.09 755.42c0 54.382-27.553 98.467-61.542 98.467s-61.542-44.085-61.542-98.467v-1e-5"/>
 <path transform="matrix(.88529 0 0 .74074 243.82 -239)" d="m-95.39 610.8c0 22.942-13.777 41.541-30.771 41.541s-30.771-18.598-30.771-41.541 13.777-41.541 30.771-41.541c13.927 0 26.118 12.628 29.722 30.789"/>
 <path transform="matrix(.75882 0 0 .64815 287.8 -177.06)" d="m-95.39 610.8c0 22.942-13.777 41.541-30.771 41.541s-30.771-18.598-30.771-41.541 13.777-41.541 30.771-41.541c13.927 0 26.118 12.628 29.722 30.789"/>
 <path transform="matrix(.73268 .19515 -.19013 .69734 466.01 -193.26)" d="m-95.39 610.8c0 22.942-13.777 41.541-30.771 41.541s-30.771-18.598-30.771-41.541 13.777-41.541 30.771-41.541c13.927 0 26.118 12.628 29.722 30.789"/>
 <path transform="matrix(.75115 -.10641 .10367 .71492 351.15 -229.73)" d="m-95.39 610.8c0 22.942-13.777 41.541-30.771 41.541s-30.771-18.598-30.771-41.541 13.777-41.541 30.771-41.541c13.927 0 26.118 12.628 29.722 30.789"/>
 <path transform="matrix(.75882 0 0 .72222 473.04 -225.38)" d="m-95.39 610.8c0 22.942-13.777 41.541-30.771 41.541s-30.771-18.598-30.771-41.541 13.777-41.541 30.771-41.541c13.927 0 26.118 12.628 29.722 30.789"/>
 <path transform="matrix(.6742 .34418 -.33533 .64168 667.18 -132.77)" d="m-95.39 610.8c0 22.942-13.777 41.541-30.771 41.541s-30.771-18.598-30.771-41.541 13.777-41.541 30.771-41.541c13.927 0 26.118 12.628 29.722 30.789"/>
 <path transform="matrix(.63235 0 0 -.98438 645.63 1070.9)" d="m223.09 755.42c0 54.382-27.553 98.467-61.542 98.467s-61.542-44.085-61.542-98.467v-1e-5"/>
 <path transform="matrix(.63235 0 0 -.9375 703.23 1035.5)" d="m223.09 755.42c0 54.382-27.553 98.467-61.542 98.467s-61.542-44.085-61.542-98.467v-1e-5"/>
 <path transform="matrix(.63235 0 0 -1 759.26 1082.7)" d="m223.09 755.42c0 54.382-27.553 98.467-61.542 98.467s-61.542-44.085-61.542-98.467v-1e-5"/>
 <path transform="matrix(.63235 0 0 -.90625 813.75 1011.9)" d="m223.09 755.42c0 54.382-27.553 98.467-61.542 98.467s-61.542-44.085-61.542-98.467v-1e-5"/>
 <path transform="matrix(.63235 0 0 -.95313 868.23 1047.3)" d="m223.09 755.42c0 54.382-27.553 98.467-61.542 98.467s-61.542-44.085-61.542-98.467v-1e-5"/>
 <path transform="matrix(.88529 0 0 .74074 852.47 -239)" d="m-95.39 610.8c0 22.942-13.777 41.541-30.771 41.541s-30.771-18.598-30.771-41.541 13.777-41.541 30.771-41.541c13.927 0 26.118 12.628 29.722 30.789"/>
 <path transform="matrix(.75882 0 0 .64815 896.44 -177.06)" d="m-95.39 610.8c0 22.942-13.777 41.541-30.771 41.541s-30.771-18.598-30.771-41.541 13.777-41.541 30.771-41.541c13.927 0 26.118 12.628 29.722 30.789"/>
 <path transform="matrix(.73268 .19515 -.19013 .69734 1074.7 -193.26)" d="m-95.39 610.8c0 22.942-13.777 41.541-30.771 41.541s-30.771-18.598-30.771-41.541 13.777-41.541 30.771-41.541c13.927 0 26.118 12.628 29.722 30.789"/>
 <path transform="matrix(.75115 -.10641 .10367 .71492 959.8 -229.73)" d="m-95.39 610.8c0 22.942-13.777 41.541-30.771 41.541s-30.771-18.598-30.771-41.541 13.777-41.541 30.771-41.541c13.927 0 26.118 12.628 29.722 30.789"/>
 <path transform="matrix(.75882 0 0 .72222 1081.7 -225.38)" d="m-95.39 610.8c0 22.942-13.777 41.541-30.771 41.541s-30.771-18.598-30.771-41.541 13.777-41.541 30.771-41.541c13.927 0 26.118 12.628 29.722 30.789"/>
 <path transform="matrix(.6742 .34418 -.33533 .64168 1275.8 -132.77)" d="m-95.39 610.8c0 22.942-13.777 41.541-30.771 41.541s-30.771-18.598-30.771-41.541 13.777-41.541 30.771-41.541c13.927 0 26.118 12.628 29.722 30.789"/>
 <g fill="#333">
  <path transform="matrix(.63235 0 0 -.98438 381 1115.5)" d="m223.09 755.42c0 54.382-27.553 98.467-61.542 98.467s-61.542-44.085-61.542-98.467v-1e-5"/>
  <path transform="matrix(.63235 0 0 -.9375 438.6 1080.1)" d="m223.09 755.42c0 54.382-27.553 98.467-61.542 98.467s-61.542-44.085-61.542-98.467v-1e-5"/>
  <path transform="matrix(.63235 0 0 -1 494.64 1127.3)" d="m223.09 755.42c0 54.382-27.553 98.467-61.542 98.467s-61.542-44.085-61.542-98.467v-1e-5"/>
  <path transform="matrix(.63235 0 0 -.90625 549.12 1056.5)" d="m223.09 755.42c0 54.382-27.553 98.467-61.542 98.467s-61.542-44.085-61.542-98.467v-1e-5"/>
  <path transform="matrix(.63235 0 0 -.95313 603.6 1091.9)" d="m223.09 755.42c0 54.382-27.553 98.467-61.542 98.467s-61.542-44.085-61.542-98.467v-1e-5"/>
  <path transform="matrix(.88529 0 0 .74074 587.84 -194.38)" d="m-95.39 610.8c0 22.942-13.777 41.541-30.771 41.541s-30.771-18.598-30.771-41.541 13.777-41.541 30.771-41.541c13.927 0 26.118 12.628 29.722 30.789"/>
  <path transform="matrix(.75882 0 0 .64815 631.82 -132.44)" d="m-95.39 610.8c0 22.942-13.777 41.541-30.771 41.541s-30.771-18.598-30.771-41.541 13.777-41.541 30.771-41.541c13.927 0 26.118 12.628 29.722 30.789"/>
  <path transform="matrix(.73268 .19515 -.19013 .69734 810.03 -148.64)" d="m-95.39 610.8c0 22.942-13.777 41.541-30.771 41.541s-30.771-18.598-30.771-41.541 13.777-41.541 30.771-41.541c13.927 0 26.118 12.628 29.722 30.789"/>
  <path transform="matrix(.75115 -.10641 .10367 .71492 695.17 -185.11)" d="m-95.39 610.8c0 22.942-13.777 41.541-30.771 41.541s-30.771-18.598-30.771-41.541 13.777-41.541 30.771-41.541c13.927 0 26.118 12.628 29.722 30.789"/>
  <path transform="matrix(.75882 0 0 .72222 817.06 -180.76)" d="m-95.39 610.8c0 22.942-13.777 41.541-30.771 41.541s-30.771-18.598-30.771-41.541 13.777-41.541 30.771-41.541c13.927 0 26.118 12.628 29.722 30.789"/>
  <path transform="matrix(.6742 .34418 -.33533 .64168 1011.2 -88.148)" d="m-95.39 610.8c0 22.942-13.777 41.541-30.771 41.541s-30.771-18.598-30.771-41.541 13.777-41.541 30.771-41.541c13.927 0 26.118 12.628 29.722 30.789"/>
 </g>
 <g fill="#333">
  <path transform="matrix(-.63235 0 0 -.98438 495.11 1109.4)" d="m223.09 755.42c0 54.382-27.553 98.467-61.542 98.467s-61.542-44.085-61.542-98.467v-1e-5"/>
  <path transform="matrix(-.63235 0 0 -.9375 437.51 1074)" d="m223.09 755.42c0 54.382-27.553 98.467-61.542 98.467s-61.542-44.085-61.542-98.467v-1e-5"/>
  <path transform="matrix(-.63235 0 0 -1 381.47 1121.2)" d="m223.09 755.42c0 54.382-27.553 98.467-61.542 98.467s-61.542-44.085-61.542-98.467v-1e-5"/>
  <path transform="matrix(-.63235 0 0 -.90625 326.99 1050.4)" d="m223.09 755.42c0 54.382-27.553 98.467-61.542 98.467s-61.542-44.085-61.542-98.467v-1e-5"/>
  <path transform="matrix(-.63235 0 0 -.95313 272.51 1085.8)" d="m223.09 755.42c0 54.382-27.553 98.467-61.542 98.467s-61.542-44.085-61.542-98.467v-1e-5"/>
  <path transform="matrix(-.88529 0 0 .74074 288.27 -200.54)" d="m-95.39 610.8c0 22.942-13.777 41.541-30.771 41.541s-30.771-18.598-30.771-41.541 13.777-41.541 30.771-41.541c13.927 0 26.118 12.628 29.722 30.789"/>
  <path transform="matrix(-.75882 0 0 .64815 244.3 -138.6)" d="m-95.39 610.8c0 22.942-13.777 41.541-30.771 41.541s-30.771-18.598-30.771-41.541 13.777-41.541 30.771-41.541c13.927 0 26.118 12.628 29.722 30.789"/>
  <path transform="matrix(-.73268 .19515 .19013 .69734 66.08 -154.79)" d="m-95.39 610.8c0 22.942-13.777 41.541-30.771 41.541s-30.771-18.598-30.771-41.541 13.777-41.541 30.771-41.541c13.927 0 26.118 12.628 29.722 30.789"/>
  <path transform="matrix(-.75115 -.10641 -.10367 .71492 180.94 -191.26)" d="m-95.39 610.8c0 22.942-13.777 41.541-30.771 41.541s-30.771-18.598-30.771-41.541 13.777-41.541 30.771-41.541c13.927 0 26.118 12.628 29.722 30.789"/>
  <path transform="matrix(-.75882 0 0 .72222 59.056 -186.92)" d="m-95.39 610.8c0 22.942-13.777 41.541-30.771 41.541s-30.771-18.598-30.771-41.541 13.777-41.541 30.771-41.541c13.927 0 26.118 12.628 29.722 30.789"/>
  <path transform="matrix(-.6742 .34418 .33533 .64168 -135.09 -94.302)" d="m-95.39 610.8c0 22.942-13.777 41.541-30.771 41.541s-30.771-18.598-30.771-41.541 13.777-41.541 30.771-41.541c13.927 0 26.118 12.628 29.722 30.789"/>
 </g>
 <g fill="#333">
  <path transform="matrix(-.63235 0 0 -.98438 1111.5 1123.2)" d="m223.09 755.42c0 54.382-27.553 98.467-61.542 98.467s-61.542-44.085-61.542-98.467v-1e-5"/>
  <path transform="matrix(-.63235 0 0 -.9375 1053.9 1087.8)" d="m223.09 755.42c0 54.382-27.553 98.467-61.542 98.467s-61.542-44.085-61.542-98.467v-1e-5"/>
  <path transform="matrix(-.63235 0 0 -1 997.9 1135)" d="m223.09 755.42c0 54.382-27.553 98.467-61.542 98.467s-61.542-44.085-61.542-98.467v-1e-5"/>
  <path transform="matrix(-.63235 0 0 -.90625 943.42 1064.2)" d="m223.09 755.42c0 54.382-27.553 98.467-61.542 98.467s-61.542-44.085-61.542-98.467v-1e-5"/>
  <path transform="matrix(-.63235 0 0 -.95313 888.94 1099.6)" d="m223.09 755.42c0 54.382-27.553 98.467-61.542 98.467s-61.542-44.085-61.542-98.467v-1e-5"/>
  <path transform="matrix(-.88529 0 0 .74074 904.7 -186.69)" d="m-95.39 610.8c0 22.942-13.777 41.541-30.771 41.541s-30.771-18.598-30.771-41.541 13.777-41.541 30.771-41.541c13.927 0 26.118 12.628 29.722 30.789"/>
  <path transform="matrix(-.75882 0 0 .64815 860.73 -124.75)" d="m-95.39 610.8c0 22.942-13.777 41.541-30.771 41.541s-30.771-18.598-30.771-41.541 13.777-41.541 30.771-41.541c13.927 0 26.118 12.628 29.722 30.789"/>
  <path transform="matrix(-.73268 .19515 .19013 .69734 682.51 -140.95)" d="m-95.39 610.8c0 22.942-13.777 41.541-30.771 41.541s-30.771-18.598-30.771-41.541 13.777-41.541 30.771-41.541c13.927 0 26.118 12.628 29.722 30.789"/>
  <path transform="matrix(-.75115 -.10641 -.10367 .71492 797.37 -177.42)" d="m-95.39 610.8c0 22.942-13.777 41.541-30.771 41.541s-30.771-18.598-30.771-41.541 13.777-41.541 30.771-41.541c13.927 0 26.118 12.628 29.722 30.789"/>
  <path transform="matrix(-.75882 0 0 .72222 675.49 -173.07)" d="m-95.39 610.8c0 22.942-13.777 41.541-30.771 41.541s-30.771-18.598-30.771-41.541 13.777-41.541 30.771-41.541c13.927 0 26.118 12.628 29.722 30.789"/>
  <path transform="matrix(-.6742 .34418 .33533 .64168 481.34 -80.455)" d="m-95.39 610.8c0 22.942-13.777 41.541-30.771 41.541s-30.771-18.598-30.771-41.541 13.777-41.541 30.771-41.541c13.927 0 26.118 12.628 29.722 30.789"/>
 </g>
 <g fill="#666">
  <path transform="matrix(.63235 0 0 -.98438 282.93 1163.2)" d="m223.09 755.42c0 54.382-27.553 98.467-61.542 98.467s-61.542-44.085-61.542-98.467v-1e-5"/>
  <path transform="matrix(.63235 0 0 -.9375 340.53 1127.8)" d="m223.09 755.42c0 54.382-27.553 98.467-61.542 98.467s-61.542-44.085-61.542-98.467v-1e-5"/>
  <path transform="matrix(.63235 0 0 -1 396.57 1175)" d="m223.09 755.42c0 54.382-27.553 98.467-61.542 98.467s-61.542-44.085-61.542-98.467v-1e-5"/>
  <path transform="matrix(.63235 0 0 -.90625 451.05 1104.2)" d="m223.09 755.42c0 54.382-27.553 98.467-61.542 98.467s-61.542-44.085-61.542-98.467v-1e-5"/>
  <path transform="matrix(.63235 0 0 -.95313 505.53 1139.6)" d="m223.09 755.42c0 54.382-27.553 98.467-61.542 98.467s-61.542-44.085-61.542-98.467v-1e-5"/>
  <path transform="matrix(.88529 0 0 .74074 489.77 -146.69)" d="m-95.39 610.8c0 22.942-13.777 41.541-30.771 41.541s-30.771-18.598-30.771-41.541 13.777-41.541 30.771-41.541c13.927 0 26.118 12.628 29.722 30.789"/>
  <path transform="matrix(.75882 0 0 .64815 533.75 -84.746)" d="m-95.39 610.8c0 22.942-13.777 41.541-30.771 41.541s-30.771-18.598-30.771-41.541 13.777-41.541 30.771-41.541c13.927 0 26.118 12.628 29.722 30.789"/>
  <path transform="matrix(.73268 .19515 -.19013 .69734 711.96 -100.95)" d="m-95.39 610.8c0 22.942-13.777 41.541-30.771 41.541s-30.771-18.598-30.771-41.541 13.777-41.541 30.771-41.541c13.927 0 26.118 12.628 29.722 30.789"/>
  <path transform="matrix(.75115 -.10641 .10367 .71492 597.1 -137.41)" d="m-95.39 610.8c0 22.942-13.777 41.541-30.771 41.541s-30.771-18.598-30.771-41.541 13.777-41.541 30.771-41.541c13.927 0 26.118 12.628 29.722 30.789"/>
  <path transform="matrix(.75882 0 0 .72222 718.99 -133.07)" d="m-95.39 610.8c0 22.942-13.777 41.541-30.771 41.541s-30.771-18.598-30.771-41.541 13.777-41.541 30.771-41.541c13.927 0 26.118 12.628 29.722 30.789"/>
  <path transform="matrix(.6742 .34418 -.33533 .64168 913.13 -40.453)" d="m-95.39 610.8c0 22.942-13.777 41.541-30.771 41.541s-30.771-18.598-30.771-41.541 13.777-41.541 30.771-41.541c13.927 0 26.118 12.628 29.722 30.789"/>
 </g>
 <g fill="#666">
  <path transform="matrix(.63235 0 0 -.98438 547.56 1164.8)" d="m223.09 755.42c0 54.382-27.553 98.467-61.542 98.467s-61.542-44.085-61.542-98.467v-1e-5"/>
  <path transform="matrix(.63235 0 0 -.9375 605.16 1129.4)" d="m223.09 755.42c0 54.382-27.553 98.467-61.542 98.467s-61.542-44.085-61.542-98.467v-1e-5"/>
  <path transform="matrix(.63235 0 0 -1 661.2 1176.6)" d="m223.09 755.42c0 54.382-27.553 98.467-61.542 98.467s-61.542-44.085-61.542-98.467v-1e-5"/>
  <path transform="matrix(.63235 0 0 -.90625 715.68 1105.8)" d="m223.09 755.42c0 54.382-27.553 98.467-61.542 98.467s-61.542-44.085-61.542-98.467v-1e-5"/>
  <path transform="matrix(.63235 0 0 -.95313 770.16 1141.2)" d="m223.09 755.42c0 54.382-27.553 98.467-61.542 98.467s-61.542-44.085-61.542-98.467v-1e-5"/>
  <path transform="matrix(.88529 0 0 .74074 754.4 -145.15)" d="m-95.39 610.8c0 22.942-13.777 41.541-30.771 41.541s-30.771-18.598-30.771-41.541 13.777-41.541 30.771-41.541c13.927 0 26.118 12.628 29.722 30.789"/>
  <path transform="matrix(.75882 0 0 .64815 798.38 -83.208)" d="m-95.39 610.8c0 22.942-13.777 41.541-30.771 41.541s-30.771-18.598-30.771-41.541 13.777-41.541 30.771-41.541c13.927 0 26.118 12.628 29.722 30.789"/>
  <path transform="matrix(.73268 .19515 -.19013 .69734 976.59 -99.407)" d="m-95.39 610.8c0 22.942-13.777 41.541-30.771 41.541s-30.771-18.598-30.771-41.541 13.777-41.541 30.771-41.541c13.927 0 26.118 12.628 29.722 30.789"/>
  <path transform="matrix(.75115 -.10641 .10367 .71492 861.73 -135.88)" d="m-95.39 610.8c0 22.942-13.777 41.541-30.771 41.541s-30.771-18.598-30.771-41.541 13.777-41.541 30.771-41.541c13.927 0 26.118 12.628 29.722 30.789"/>
  <path transform="matrix(.75882 0 0 .72222 983.62 -131.53)" d="m-95.39 610.8c0 22.942-13.777 41.541-30.771 41.541s-30.771-18.598-30.771-41.541 13.777-41.541 30.771-41.541c13.927 0 26.118 12.628 29.722 30.789"/>
  <path transform="matrix(.6742 .34418 -.33533 .64168 1177.8 -38.914)" d="m-95.39 610.8c0 22.942-13.777 41.541-30.771 41.541s-30.771-18.598-30.771-41.541 13.777-41.541 30.771-41.541c13.927 0 26.118 12.628 29.722 30.789"/>
 </g>
 <g fill="#666">
  <path transform="matrix(.63235 0 0 -.98438 707.9 1172.5)" d="m223.09 755.42c0 54.382-27.553 98.467-61.542 98.467s-61.542-44.085-61.542-98.467v-1e-5"/>
  <path transform="matrix(.63235 0 0 -.9375 765.49 1137.1)" d="m223.09 755.42c0 54.382-27.553 98.467-61.542 98.467s-61.542-44.085-61.542-98.467v-1e-5"/>
  <path transform="matrix(.63235 0 0 -1 821.53 1184.3)" d="m223.09 755.42c0 54.382-27.553 98.467-61.542 98.467s-61.542-44.085-61.542-98.467v-1e-5"/>
  <path transform="matrix(.63235 0 0 -.90625 876.01 1113.4)" d="m223.09 755.42c0 54.382-27.553 98.467-61.542 98.467s-61.542-44.085-61.542-98.467v-1e-5"/>
  <path transform="matrix(.63235 0 0 -.95313 930.5 1148.9)" d="m223.09 755.42c0 54.382-27.553 98.467-61.542 98.467s-61.542-44.085-61.542-98.467v-1e-5"/>
  <path transform="matrix(.88529 0 0 .74074 914.73 -137.46)" d="m-95.39 610.8c0 22.942-13.777 41.541-30.771 41.541s-30.771-18.598-30.771-41.541 13.777-41.541 30.771-41.541c13.927 0 26.118 12.628 29.722 30.789"/>
  <path transform="matrix(.75882 0 0 .64815 958.71 -75.515)" d="m-95.39 610.8c0 22.942-13.777 41.541-30.771 41.541s-30.771-18.598-30.771-41.541 13.777-41.541 30.771-41.541c13.927 0 26.118 12.628 29.722 30.789"/>
  <path transform="matrix(.73268 .19515 -.19013 .69734 1136.9 -91.714)" d="m-95.39 610.8c0 22.942-13.777 41.541-30.771 41.541s-30.771-18.598-30.771-41.541 13.777-41.541 30.771-41.541c13.927 0 26.118 12.628 29.722 30.789"/>
  <path transform="matrix(.75115 -.10641 .10367 .71492 1022.1 -128.18)" d="m-95.39 610.8c0 22.942-13.777 41.541-30.771 41.541s-30.771-18.598-30.771-41.541 13.777-41.541 30.771-41.541c13.927 0 26.118 12.628 29.722 30.789"/>
  <path transform="matrix(.75882 0 0 .72222 1143.9 -123.84)" d="m-95.39 610.8c0 22.942-13.777 41.541-30.771 41.541s-30.771-18.598-30.771-41.541 13.777-41.541 30.771-41.541c13.927 0 26.118 12.628 29.722 30.789"/>
  <path transform="matrix(.6742 .34418 -.33533 .64168 1338.1 -31.222)" d="m-95.39 610.8c0 22.942-13.777 41.541-30.771 41.541s-30.771-18.598-30.771-41.541 13.777-41.541 30.771-41.541c13.927 0 26.118 12.628 29.722 30.789"/>
 </g>
 <g fill="#666">
  <path transform="matrix(-.63235 0 0 -.98438 437.62 1146.3)" d="m223.09 755.42c0 54.382-27.553 98.467-61.542 98.467s-61.542-44.085-61.542-98.467v-1e-5"/>
  <path transform="matrix(-.63235 0 0 -.9375 380.03 1110.9)" d="m223.09 755.42c0 54.382-27.553 98.467-61.542 98.467s-61.542-44.085-61.542-98.467v-1e-5"/>
  <path transform="matrix(-.63235 0 0 -1 323.99 1158.1)" d="m223.09 755.42c0 54.382-27.553 98.467-61.542 98.467s-61.542-44.085-61.542-98.467v-1e-5"/>
  <path transform="matrix(-.63235 0 0 -.90625 269.51 1087.3)" d="m223.09 755.42c0 54.382-27.553 98.467-61.542 98.467s-61.542-44.085-61.542-98.467v-1e-5"/>
  <path transform="matrix(-.63235 0 0 -.95313 215.02 1122.7)" d="m223.09 755.42c0 54.382-27.553 98.467-61.542 98.467s-61.542-44.085-61.542-98.467v-1e-5"/>
  <path transform="matrix(-.88529 0 0 .74074 230.78 -163.61)" d="m-95.39 610.8c0 22.942-13.777 41.541-30.771 41.541s-30.771-18.598-30.771-41.541 13.777-41.541 30.771-41.541c13.927 0 26.118 12.628 29.722 30.789"/>
  <path transform="matrix(-.75882 0 0 .64815 186.81 -101.67)" d="m-95.39 610.8c0 22.942-13.777 41.541-30.771 41.541s-30.771-18.598-30.771-41.541 13.777-41.541 30.771-41.541c13.927 0 26.118 12.628 29.722 30.789"/>
  <path transform="matrix(-.73268 .19515 .19013 .69734 8.5934 -117.87)" d="m-95.39 610.8c0 22.942-13.777 41.541-30.771 41.541s-30.771-18.598-30.771-41.541 13.777-41.541 30.771-41.541c13.927 0 26.118 12.628 29.722 30.789"/>
  <path transform="matrix(-.75115 -.10641 -.10367 .71492 123.46 -154.34)" d="m-95.39 610.8c0 22.942-13.777 41.541-30.771 41.541s-30.771-18.598-30.771-41.541 13.777-41.541 30.771-41.541c13.927 0 26.118 12.628 29.722 30.789"/>
  <path transform="matrix(-.75882 0 0 .72222 1.5688 -149.99)" d="m-95.39 610.8c0 22.942-13.777 41.541-30.771 41.541s-30.771-18.598-30.771-41.541 13.777-41.541 30.771-41.541c13.927 0 26.118 12.628 29.722 30.789"/>
  <path transform="matrix(-.6742 .34418 .33533 .64168 -192.58 -57.377)" d="m-95.39 610.8c0 22.942-13.777 41.541-30.771 41.541s-30.771-18.598-30.771-41.541 13.777-41.541 30.771-41.541c13.927 0 26.118 12.628 29.722 30.789"/>
 </g>
 <g fill="#808080">
  <path transform="matrix(-.63235 0 0 -.98438 728.37 1198.6)" d="m223.09 755.42c0 54.382-27.553 98.467-61.542 98.467s-61.542-44.085-61.542-98.467v-1e-5"/>
  <path transform="matrix(-.63235 0 0 -.9375 670.77 1163.2)" d="m223.09 755.42c0 54.382-27.553 98.467-61.542 98.467s-61.542-44.085-61.542-98.467v-1e-5"/>
  <path transform="matrix(-.63235 0 0 -1 614.74 1210.4)" d="m223.09 755.42c0 54.382-27.553 98.467-61.542 98.467s-61.542-44.085-61.542-98.467v-1e-5"/>
  <path transform="matrix(-.63235 0 0 -.90625 560.25 1139.6)" d="m223.09 755.42c0 54.382-27.553 98.467-61.542 98.467s-61.542-44.085-61.542-98.467v-1e-5"/>
  <path transform="matrix(-.63235 0 0 -.95313 505.77 1175)" d="m223.09 755.42c0 54.382-27.553 98.467-61.542 98.467s-61.542-44.085-61.542-98.467v-1e-5"/>
  <path transform="matrix(-.88529 0 0 .74074 521.53 -111.3)" d="m-95.39 610.8c0 22.942-13.777 41.541-30.771 41.541s-30.771-18.598-30.771-41.541 13.777-41.541 30.771-41.541c13.927 0 26.118 12.628 29.722 30.789"/>
  <path transform="matrix(-.75882 0 0 .64815 477.56 -49.36)" d="m-95.39 610.8c0 22.942-13.777 41.541-30.771 41.541s-30.771-18.598-30.771-41.541 13.777-41.541 30.771-41.541c13.927 0 26.118 12.628 29.722 30.789"/>
  <path transform="matrix(-.73268 .19515 .19013 .69734 299.34 -65.559)" d="m-95.39 610.8c0 22.942-13.777 41.541-30.771 41.541s-30.771-18.598-30.771-41.541 13.777-41.541 30.771-41.541c13.927 0 26.118 12.628 29.722 30.789"/>
  <path transform="matrix(-.75115 -.10641 -.10367 .71492 414.2 -102.03)" d="m-95.39 610.8c0 22.942-13.777 41.541-30.771 41.541s-30.771-18.598-30.771-41.541 13.777-41.541 30.771-41.541c13.927 0 26.118 12.628 29.722 30.789"/>
  <path transform="matrix(-.75882 0 0 .72222 292.32 -97.682)" d="m-95.39 610.8c0 22.942-13.777 41.541-30.771 41.541s-30.771-18.598-30.771-41.541 13.777-41.541 30.771-41.541c13.927 0 26.118 12.628 29.722 30.789"/>
  <path transform="matrix(-.6742 .34418 .33533 .64168 98.172 -5.0665)" d="m-95.39 610.8c0 22.942-13.777 41.541-30.771 41.541s-30.771-18.598-30.771-41.541 13.777-41.541 30.771-41.541c13.927 0 26.118 12.628 29.722 30.789"/>
 </g>
 <g fill="#808080">
  <path transform="matrix(-.63235 0 0 -.98438 1091.8 1200.2)" d="m223.09 755.42c0 54.382-27.553 98.467-61.542 98.467s-61.542-44.085-61.542-98.467v-1e-5"/>
  <path transform="matrix(-.63235 0 0 -.9375 1034.2 1164.8)" d="m223.09 755.42c0 54.382-27.553 98.467-61.542 98.467s-61.542-44.085-61.542-98.467v-1e-5"/>
  <path transform="matrix(-.63235 0 0 -1 978.19 1212)" d="m223.09 755.42c0 54.382-27.553 98.467-61.542 98.467s-61.542-44.085-61.542-98.467v-1e-5"/>
  <path transform="matrix(-.63235 0 0 -.90625 923.71 1141.2)" d="m223.09 755.42c0 54.382-27.553 98.467-61.542 98.467s-61.542-44.085-61.542-98.467v-1e-5"/>
  <path transform="matrix(-.63235 0 0 -.95313 869.23 1176.6)" d="m223.09 755.42c0 54.382-27.553 98.467-61.542 98.467s-61.542-44.085-61.542-98.467v-1e-5"/>
  <path transform="matrix(-.88529 0 0 .74074 884.99 -109.73)" d="m-95.39 610.8c0 22.942-13.777 41.541-30.771 41.541s-30.771-18.598-30.771-41.541 13.777-41.541 30.771-41.541c13.927 0 26.118 12.628 29.722 30.789"/>
  <path transform="matrix(-.75882 0 0 .64815 841.01 -47.794)" d="m-95.39 610.8c0 22.942-13.777 41.541-30.771 41.541s-30.771-18.598-30.771-41.541 13.777-41.541 30.771-41.541c13.927 0 26.118 12.628 29.722 30.789"/>
  <path transform="matrix(-.73268 .19515 .19013 .69734 662.8 -63.992)" d="m-95.39 610.8c0 22.942-13.777 41.541-30.771 41.541s-30.771-18.598-30.771-41.541 13.777-41.541 30.771-41.541c13.927 0 26.118 12.628 29.722 30.789"/>
  <path transform="matrix(-.75115 -.10641 -.10367 .71492 777.66 -100.46)" d="m-95.39 610.8c0 22.942-13.777 41.541-30.771 41.541s-30.771-18.598-30.771-41.541 13.777-41.541 30.771-41.541c13.927 0 26.118 12.628 29.722 30.789"/>
  <path transform="matrix(-.75882 0 0 .72222 655.77 -96.115)" d="m-95.39 610.8c0 22.942-13.777 41.541-30.771 41.541s-30.771-18.598-30.771-41.541 13.777-41.541 30.771-41.541c13.927 0 26.118 12.628 29.722 30.789"/>
  <path transform="matrix(-.6742 .34418 .33533 .64168 461.63 -3.5002)" d="m-95.39 610.8c0 22.942-13.777 41.541-30.771 41.541s-30.771-18.598-30.771-41.541 13.777-41.541 30.771-41.541c13.927 0 26.118 12.628 29.722 30.789"/>
 </g>
 <g fill="#808080">
  <path transform="matrix(.63235 0 0 -.98438 38.54 1203.2)" d="m223.09 755.42c0 54.382-27.553 98.467-61.542 98.467s-61.542-44.085-61.542-98.467v-1e-5"/>
  <path transform="matrix(.63235 0 0 -.9375 96.136 1167.8)" d="m223.09 755.42c0 54.382-27.553 98.467-61.542 98.467s-61.542-44.085-61.542-98.467v-1e-5"/>
  <path transform="matrix(.63235 0 0 -1 152.18 1215)" d="m223.09 755.42c0 54.382-27.553 98.467-61.542 98.467s-61.542-44.085-61.542-98.467v-1e-5"/>
  <path transform="matrix(.63235 0 0 -.90625 206.66 1144.2)" d="m223.09 755.42c0 54.382-27.553 98.467-61.542 98.467s-61.542-44.085-61.542-98.467v-1e-5"/>
  <path transform="matrix(.63235 0 0 -.95313 261.14 1179.6)" d="m223.09 755.42c0 54.382-27.553 98.467-61.542 98.467s-61.542-44.085-61.542-98.467v-1e-5"/>
  <path transform="matrix(.88529 0 0 .74074 245.38 -106.68)" d="m-95.39 610.8c0 22.942-13.777 41.541-30.771 41.541s-30.771-18.598-30.771-41.541 13.777-41.541 30.771-41.541c13.927 0 26.118 12.628 29.722 30.789"/>
  <path transform="matrix(.75882 0 0 .64815 289.35 -44.744)" d="m-95.39 610.8c0 22.942-13.777 41.541-30.771 41.541s-30.771-18.598-30.771-41.541 13.777-41.541 30.771-41.541c13.927 0 26.118 12.628 29.722 30.789"/>
  <path transform="matrix(.73268 .19515 -.19013 .69734 467.57 -60.943)" d="m-95.39 610.8c0 22.942-13.777 41.541-30.771 41.541s-30.771-18.598-30.771-41.541 13.777-41.541 30.771-41.541c13.927 0 26.118 12.628 29.722 30.789"/>
  <path transform="matrix(.75115 -.10641 .10367 .71492 352.71 -97.413)" d="m-95.39 610.8c0 22.942-13.777 41.541-30.771 41.541s-30.771-18.598-30.771-41.541 13.777-41.541 30.771-41.541c13.927 0 26.118 12.628 29.722 30.789"/>
  <path transform="matrix(.75882 0 0 .72222 474.59 -93.066)" d="m-95.39 610.8c0 22.942-13.777 41.541-30.771 41.541s-30.771-18.598-30.771-41.541 13.777-41.541 30.771-41.541c13.927 0 26.118 12.628 29.722 30.789"/>
  <path transform="matrix(.6742 .34418 -.33533 .64168 668.74 -.45087)" d="m-95.39 610.8c0 22.942-13.777 41.541-30.771 41.541s-30.771-18.598-30.771-41.541 13.777-41.541 30.771-41.541c13.927 0 26.118 12.628 29.722 30.789"/>
 </g>
 <path transform="matrix(.54964 0 0 -.98438 399.76 1254)" d="m223.09 755.42c0 54.382-27.553 98.467-61.542 98.467s-61.542-44.085-61.542-98.467v-1e-5"/>
 <path transform="matrix(.54964 0 0 -.9375 449.82 1218.6)" d="m223.09 755.42c0 54.382-27.553 98.467-61.542 98.467s-61.542-44.085-61.542-98.467v-1e-5"/>
 <path transform="matrix(.54964 0 0 -1 498.53 1265.8)" d="m223.09 755.42c0 54.382-27.553 98.467-61.542 98.467s-61.542-44.085-61.542-98.467v-1e-5"/>
 <path transform="matrix(.54964 0 0 -.90625 545.89 1195)" d="m223.09 755.42c0 54.382-27.553 98.467-61.542 98.467s-61.542-44.085-61.542-98.467v-1e-5"/>
 <path transform="matrix(.54964 0 0 -.95313 593.24 1230.4)" d="m223.09 755.42c0 54.382-27.553 98.467-61.542 98.467s-61.542-44.085-61.542-98.467v-1e-5"/>
 <path transform="matrix(.76949 0 0 .74074 579.54 -55.913)" d="m-95.39 610.8c0 22.942-13.777 41.541-30.771 41.541s-30.771-18.598-30.771-41.541 13.777-41.541 30.771-41.541c13.927 0 26.118 12.628 29.722 30.789"/>
 <path transform="matrix(.65957 0 0 .64815 617.77 6.0274)" d="m-95.39 610.8c0 22.942-13.777 41.541-30.771 41.541s-30.771-18.598-30.771-41.541 13.777-41.541 30.771-41.541c13.927 0 26.118 12.628 29.722 30.789"/>
 <path transform="matrix(.63685 .19515 -.16526 .69734 772.67 -10.171)" d="m-95.39 610.8c0 22.942-13.777 41.541-30.771 41.541s-30.771-18.598-30.771-41.541 13.777-41.541 30.771-41.541c13.927 0 26.118 12.628 29.722 30.789"/>
 <path transform="matrix(.65289 -.10641 .09011 .71492 672.83 -46.641)" d="m-95.39 610.8c0 22.942-13.777 41.541-30.771 41.541s-30.771-18.598-30.771-41.541 13.777-41.541 30.771-41.541c13.927 0 26.118 12.628 29.722 30.789"/>
 <path transform="matrix(.65957 0 0 .72222 778.78 -42.294)" d="m-95.39 610.8c0 22.942-13.777 41.541-30.771 41.541s-30.771-18.598-30.771-41.541 13.777-41.541 30.771-41.541c13.927 0 26.118 12.628 29.722 30.789"/>
 <path transform="matrix(.58601 .34418 -.29147 .64168 947.53 50.321)" d="m-95.39 610.8c0 22.942-13.777 41.541-30.771 41.541s-30.771-18.598-30.771-41.541 13.777-41.541 30.771-41.541c13.927 0 26.118 12.628 29.722 30.789"/>
 <g fill="#b3b3b3">
  <path transform="matrix(.54964 0 0 -.98438 130.51 1238.6)" d="m223.09 755.42c0 54.382-27.553 98.467-61.542 98.467s-61.542-44.085-61.542-98.467v-1e-5"/>
  <path transform="matrix(.54964 0 0 -.9375 180.57 1203.2)" d="m223.09 755.42c0 54.382-27.553 98.467-61.542 98.467s-61.542-44.085-61.542-98.467v-1e-5"/>
  <path transform="matrix(.54964 0 0 -1 229.28 1250.4)" d="m223.09 755.42c0 54.382-27.553 98.467-61.542 98.467s-61.542-44.085-61.542-98.467v-1e-5"/>
  <path transform="matrix(.54964 0 0 -.90625 276.64 1179.6)" d="m223.09 755.42c0 54.382-27.553 98.467-61.542 98.467s-61.542-44.085-61.542-98.467v-1e-5"/>
  <path transform="matrix(.54964 0 0 -.95313 323.99 1215)" d="m223.09 755.42c0 54.382-27.553 98.467-61.542 98.467s-61.542-44.085-61.542-98.467v-1e-5"/>
  <path transform="matrix(.76949 0 0 .74074 310.29 -71.298)" d="m-95.39 610.8c0 22.942-13.777 41.541-30.771 41.541s-30.771-18.598-30.771-41.541 13.777-41.541 30.771-41.541c13.927 0 26.118 12.628 29.722 30.789"/>
  <path transform="matrix(.65957 0 0 .64815 348.52 -9.358)" d="m-95.39 610.8c0 22.942-13.777 41.541-30.771 41.541s-30.771-18.598-30.771-41.541 13.777-41.541 30.771-41.541c13.927 0 26.118 12.628 29.722 30.789"/>
  <path transform="matrix(.63685 .19515 -.16526 .69734 503.42 -25.557)" d="m-95.39 610.8c0 22.942-13.777 41.541-30.771 41.541s-30.771-18.598-30.771-41.541 13.777-41.541 30.771-41.541c13.927 0 26.118 12.628 29.722 30.789"/>
  <path transform="matrix(.65289 -.10641 .09011 .71492 403.58 -62.026)" d="m-95.39 610.8c0 22.942-13.777 41.541-30.771 41.541s-30.771-18.598-30.771-41.541 13.777-41.541 30.771-41.541c13.927 0 26.118 12.628 29.722 30.789"/>
  <path transform="matrix(.65957 0 0 .72222 509.53 -57.68)" d="m-95.39 610.8c0 22.942-13.777 41.541-30.771 41.541s-30.771-18.598-30.771-41.541 13.777-41.541 30.771-41.541c13.927 0 26.118 12.628 29.722 30.789"/>
  <path transform="matrix(.58601 .34418 -.29147 .64168 678.28 34.936)" d="m-95.39 610.8c0 22.942-13.777 41.541-30.771 41.541s-30.771-18.598-30.771-41.541 13.777-41.541 30.771-41.541c13.927 0 26.118 12.628 29.722 30.789"/>
 </g>
 <path transform="matrix(.54964 0 0 -.98438 688.77 1241.7)" d="m223.09 755.42c0 54.382-27.553 98.467-61.542 98.467s-61.542-44.085-61.542-98.467v-1e-5"/>
 <path transform="matrix(.54964 0 0 -.9375 738.84 1206.3)" d="m223.09 755.42c0 54.382-27.553 98.467-61.542 98.467s-61.542-44.085-61.542-98.467v-1e-5"/>
 <path transform="matrix(.54964 0 0 -1 787.55 1253.5)" d="m223.09 755.42c0 54.382-27.553 98.467-61.542 98.467s-61.542-44.085-61.542-98.467v-1e-5"/>
 <path transform="matrix(.54964 0 0 -.90625 834.9 1182.7)" d="m223.09 755.42c0 54.382-27.553 98.467-61.542 98.467s-61.542-44.085-61.542-98.467v-1e-5"/>
 <path transform="matrix(.54964 0 0 -.95313 882.26 1218.1)" d="m223.09 755.42c0 54.382-27.553 98.467-61.542 98.467s-61.542-44.085-61.542-98.467v-1e-5"/>
 <path transform="matrix(.76949 0 0 .74074 868.56 -68.221)" d="m-95.39 610.8c0 22.942-13.777 41.541-30.771 41.541s-30.771-18.598-30.771-41.541 13.777-41.541 30.771-41.541c13.927 0 26.118 12.628 29.722 30.789"/>
 <path transform="matrix(.65957 0 0 .64815 906.78 -6.2809)" d="m-95.39 610.8c0 22.942-13.777 41.541-30.771 41.541s-30.771-18.598-30.771-41.541 13.777-41.541 30.771-41.541c13.927 0 26.118 12.628 29.722 30.789"/>
 <path transform="matrix(.63685 .19515 -.16526 .69734 1061.7 -22.48)" d="m-95.39 610.8c0 22.942-13.777 41.541-30.771 41.541s-30.771-18.598-30.771-41.541 13.777-41.541 30.771-41.541c13.927 0 26.118 12.628 29.722 30.789"/>
 <path transform="matrix(.65289 -.10641 .09011 .71492 961.85 -58.949)" d="m-95.39 610.8c0 22.942-13.777 41.541-30.771 41.541s-30.771-18.598-30.771-41.541 13.777-41.541 30.771-41.541c13.927 0 26.118 12.628 29.722 30.789"/>
 <path transform="matrix(.65957 0 0 .72222 1067.8 -54.602)" d="m-95.39 610.8c0 22.942-13.777 41.541-30.771 41.541s-30.771-18.598-30.771-41.541 13.777-41.541 30.771-41.541c13.927 0 26.118 12.628 29.722 30.789"/>
 <path transform="matrix(.58601 .34418 -.29147 .64168 1236.5 38.013)" d="m-95.39 610.8c0 22.942-13.777 41.541-30.771 41.541s-30.771-18.598-30.771-41.541 13.777-41.541 30.771-41.541c13.927 0 26.118 12.628 29.722 30.789"/>
 <g fill="#333">
  <path transform="matrix(.54964 0 0 -.98438 422.25 1281.2)" d="m223.09 755.42c0 54.382-27.553 98.467-61.542 98.467s-61.542-44.085-61.542-98.467v-1e-5"/>
  <path transform="matrix(.54964 0 0 -.9375 472.31 1245.8)" d="m223.09 755.42c0 54.382-27.553 98.467-61.542 98.467s-61.542-44.085-61.542-98.467v-1e-5"/>
  <path transform="matrix(.54964 0 0 -1 521.02 1293)" d="m223.09 755.42c0 54.382-27.553 98.467-61.542 98.467s-61.542-44.085-61.542-98.467v-1e-5"/>
  <path transform="matrix(.54964 0 0 -.90625 568.37 1222.2)" d="m223.09 755.42c0 54.382-27.553 98.467-61.542 98.467s-61.542-44.085-61.542-98.467v-1e-5"/>
  <path transform="matrix(.54964 0 0 -.95313 615.73 1257.6)" d="m223.09 755.42c0 54.382-27.553 98.467-61.542 98.467s-61.542-44.085-61.542-98.467v-1e-5"/>
  <path transform="matrix(.76949 0 0 .74074 602.03 -28.714)" d="m-95.39 610.8c0 22.942-13.777 41.541-30.771 41.541s-30.771-18.598-30.771-41.541 13.777-41.541 30.771-41.541c13.927 0 26.118 12.628 29.722 30.789"/>
  <path transform="matrix(.65957 0 0 .64815 640.25 33.227)" d="m-95.39 610.8c0 22.942-13.777 41.541-30.771 41.541s-30.771-18.598-30.771-41.541 13.777-41.541 30.771-41.541c13.927 0 26.118 12.628 29.722 30.789"/>
  <path transform="matrix(.63685 .19515 -.16526 .69734 795.16 17.028)" d="m-95.39 610.8c0 22.942-13.777 41.541-30.771 41.541s-30.771-18.598-30.771-41.541 13.777-41.541 30.771-41.541c13.927 0 26.118 12.628 29.722 30.789"/>
  <path transform="matrix(.65289 -.10641 .09011 .71492 695.32 -19.441)" d="m-95.39 610.8c0 22.942-13.777 41.541-30.771 41.541s-30.771-18.598-30.771-41.541 13.777-41.541 30.771-41.541c13.927 0 26.118 12.628 29.722 30.789"/>
  <path transform="matrix(.65957 0 0 .72222 801.26 -15.095)" d="m-95.39 610.8c0 22.942-13.777 41.541-30.771 41.541s-30.771-18.598-30.771-41.541 13.777-41.541 30.771-41.541c13.927 0 26.118 12.628 29.722 30.789"/>
  <path transform="matrix(.58601 .34418 -.29147 .64168 970.01 77.52)" d="m-95.39 610.8c0 22.942-13.777 41.541-30.771 41.541s-30.771-18.598-30.771-41.541 13.777-41.541 30.771-41.541c13.927 0 26.118 12.628 29.722 30.789"/>
 </g>
 <g fill="#333">
  <path transform="matrix(-.54964 0 0 -.98438 528.71 1277.1)" d="m223.09 755.42c0 54.382-27.553 98.467-61.542 98.467s-61.542-44.085-61.542-98.467v-1e-5"/>
  <path transform="matrix(-.54964 0 0 -.9375 478.65 1241.7)" d="m223.09 755.42c0 54.382-27.553 98.467-61.542 98.467s-61.542-44.085-61.542-98.467v-1e-5"/>
  <path transform="matrix(-.54964 0 0 -1 429.94 1288.9)" d="m223.09 755.42c0 54.382-27.553 98.467-61.542 98.467s-61.542-44.085-61.542-98.467v-1e-5"/>
  <path transform="matrix(-.54964 0 0 -.90625 382.58 1218.1)" d="m223.09 755.42c0 54.382-27.553 98.467-61.542 98.467s-61.542-44.085-61.542-98.467v-1e-5"/>
  <path transform="matrix(-.54964 0 0 -.95313 335.23 1253.5)" d="m223.09 755.42c0 54.382-27.553 98.467-61.542 98.467s-61.542-44.085-61.542-98.467v-1e-5"/>
  <path transform="matrix(-.76949 0 0 .74074 348.93 -32.835)" d="m-95.39 610.8c0 22.942-13.777 41.541-30.771 41.541s-30.771-18.598-30.771-41.541 13.777-41.541 30.771-41.541c13.927 0 26.118 12.628 29.722 30.789"/>
  <path transform="matrix(-.65957 0 0 .64815 310.7 29.106)" d="m-95.39 610.8c0 22.942-13.777 41.541-30.771 41.541s-30.771-18.598-30.771-41.541 13.777-41.541 30.771-41.541c13.927 0 26.118 12.628 29.722 30.789"/>
  <path transform="matrix(-.63685 .19515 .16526 .69734 155.8 12.907)" d="m-95.39 610.8c0 22.942-13.777 41.541-30.771 41.541s-30.771-18.598-30.771-41.541 13.777-41.541 30.771-41.541c13.927 0 26.118 12.628 29.722 30.789"/>
  <path transform="matrix(-.65289 -.10641 -.09011 .71492 255.64 -23.563)" d="m-95.39 610.8c0 22.942-13.777 41.541-30.771 41.541s-30.771-18.598-30.771-41.541 13.777-41.541 30.771-41.541c13.927 0 26.118 12.628 29.722 30.789"/>
  <path transform="matrix(-.65957 0 0 .72222 149.69 -19.216)" d="m-95.39 610.8c0 22.942-13.777 41.541-30.771 41.541s-30.771-18.598-30.771-41.541 13.777-41.541 30.771-41.541c13.927 0 26.118 12.628 29.722 30.789"/>
  <path transform="matrix(-.58601 .34418 .29147 .64168 -19.056 73.399)" d="m-95.39 610.8c0 22.942-13.777 41.541-30.771 41.541s-30.771-18.598-30.771-41.541 13.777-41.541 30.771-41.541c13.927 0 26.118 12.628 29.722 30.789"/>
 </g>
 <g fill="#333">
  <path transform="matrix(-.54964 0 0 -.98438 1086 1290.9)" d="m223.09 755.42c0 54.382-27.553 98.467-61.542 98.467s-61.542-44.085-61.542-98.467v-1e-5"/>
  <path transform="matrix(-.54964 0 0 -.9375 1036 1255.5)" d="m223.09 755.42c0 54.382-27.553 98.467-61.542 98.467s-61.542-44.085-61.542-98.467v-1e-5"/>
  <path transform="matrix(-.54964 0 0 -1 987.28 1302.7)" d="m223.09 755.42c0 54.382-27.553 98.467-61.542 98.467s-61.542-44.085-61.542-98.467v-1e-5"/>
  <path transform="matrix(-.54964 0 0 -.90625 939.92 1231.9)" d="m223.09 755.42c0 54.382-27.553 98.467-61.542 98.467s-61.542-44.085-61.542-98.467v-1e-5"/>
  <path transform="matrix(-.54964 0 0 -.95313 892.57 1267.3)" d="m223.09 755.42c0 54.382-27.553 98.467-61.542 98.467s-61.542-44.085-61.542-98.467v-1e-5"/>
  <path transform="matrix(-.76949 0 0 .74074 906.27 -18.988)" d="m-95.39 610.8c0 22.942-13.777 41.541-30.771 41.541s-30.771-18.598-30.771-41.541 13.777-41.541 30.771-41.541c13.927 0 26.118 12.628 29.722 30.789"/>
  <path transform="matrix(-.65957 0 0 .64815 868.04 42.952)" d="m-95.39 610.8c0 22.942-13.777 41.541-30.771 41.541s-30.771-18.598-30.771-41.541 13.777-41.541 30.771-41.541c13.927 0 26.118 12.628 29.722 30.789"/>
  <path transform="matrix(-.63685 .19515 .16526 .69734 713.14 26.754)" d="m-95.39 610.8c0 22.942-13.777 41.541-30.771 41.541s-30.771-18.598-30.771-41.541 13.777-41.541 30.771-41.541c13.927 0 26.118 12.628 29.722 30.789"/>
  <path transform="matrix(-.65289 -.10641 -.09011 .71492 812.98 -9.7157)" d="m-95.39 610.8c0 22.942-13.777 41.541-30.771 41.541s-30.771-18.598-30.771-41.541 13.777-41.541 30.771-41.541c13.927 0 26.118 12.628 29.722 30.789"/>
  <path transform="matrix(-.65957 0 0 .72222 707.03 -5.3692)" d="m-95.39 610.8c0 22.942-13.777 41.541-30.771 41.541s-30.771-18.598-30.771-41.541 13.777-41.541 30.771-41.541c13.927 0 26.118 12.628 29.722 30.789"/>
  <path transform="matrix(-.58601 .34418 .29147 .64168 538.28 87.246)" d="m-95.39 610.8c0 22.942-13.777 41.541-30.771 41.541s-30.771-18.598-30.771-41.541 13.777-41.541 30.771-41.541c13.927 0 26.118 12.628 29.722 30.789"/>
 </g>
 <g fill="#666">
  <path transform="matrix(.54964 0 0 -.98438 344.29 1330.9)" d="m223.09 755.42c0 54.382-27.553 98.467-61.542 98.467s-61.542-44.085-61.542-98.467v-1e-5"/>
  <path transform="matrix(.54964 0 0 -.9375 394.35 1295.5)" d="m223.09 755.42c0 54.382-27.553 98.467-61.542 98.467s-61.542-44.085-61.542-98.467v-1e-5"/>
  <path transform="matrix(.54964 0 0 -1 443.06 1342.7)" d="m223.09 755.42c0 54.382-27.553 98.467-61.542 98.467s-61.542-44.085-61.542-98.467v-1e-5"/>
  <path transform="matrix(.54964 0 0 -.90625 490.41 1271.9)" d="m223.09 755.42c0 54.382-27.553 98.467-61.542 98.467s-61.542-44.085-61.542-98.467v-1e-5"/>
  <path transform="matrix(.54964 0 0 -.95313 537.77 1307.3)" d="m223.09 755.42c0 54.382-27.553 98.467-61.542 98.467s-61.542-44.085-61.542-98.467v-1e-5"/>
  <path transform="matrix(.76949 0 0 .74074 524.07 21.014)" d="m-95.39 610.8c0 22.942-13.777 41.541-30.771 41.541s-30.771-18.598-30.771-41.541 13.777-41.541 30.771-41.541c13.927 0 26.118 12.628 29.722 30.789"/>
  <path transform="matrix(.65957 0 0 .64815 562.29 82.955)" d="m-95.39 610.8c0 22.942-13.777 41.541-30.771 41.541s-30.771-18.598-30.771-41.541 13.777-41.541 30.771-41.541c13.927 0 26.118 12.628 29.722 30.789"/>
  <path transform="matrix(.63685 .19515 -.16526 .69734 717.2 66.756)" d="m-95.39 610.8c0 22.942-13.777 41.541-30.771 41.541s-30.771-18.598-30.771-41.541 13.777-41.541 30.771-41.541c13.927 0 26.118 12.628 29.722 30.789"/>
  <path transform="matrix(.65289 -.10641 .09011 .71492 617.36 30.286)" d="m-95.39 610.8c0 22.942-13.777 41.541-30.771 41.541s-30.771-18.598-30.771-41.541 13.777-41.541 30.771-41.541c13.927 0 26.118 12.628 29.722 30.789"/>
  <path transform="matrix(.65957 0 0 .72222 723.3 34.633)" d="m-95.39 610.8c0 22.942-13.777 41.541-30.771 41.541s-30.771-18.598-30.771-41.541 13.777-41.541 30.771-41.541c13.927 0 26.118 12.628 29.722 30.789"/>
  <path transform="matrix(.58601 .34418 -.29147 .64168 892.05 127.25)" d="m-95.39 610.8c0 22.942-13.777 41.541-30.771 41.541s-30.771-18.598-30.771-41.541 13.777-41.541 30.771-41.541c13.927 0 26.118 12.628 29.722 30.789"/>
 </g>
 <g fill="#666">
  <path transform="matrix(.54964 0 0 -.98438 574.3 1332.5)" d="m223.09 755.42c0 54.382-27.553 98.467-61.542 98.467s-61.542-44.085-61.542-98.467v-1e-5"/>
  <path transform="matrix(.54964 0 0 -.9375 624.36 1297.1)" d="m223.09 755.42c0 54.382-27.553 98.467-61.542 98.467s-61.542-44.085-61.542-98.467v-1e-5"/>
  <path transform="matrix(.54964 0 0 -1 673.07 1344.3)" d="m223.09 755.42c0 54.382-27.553 98.467-61.542 98.467s-61.542-44.085-61.542-98.467v-1e-5"/>
  <path transform="matrix(.54964 0 0 -.90625 720.43 1273.5)" d="m223.09 755.42c0 54.382-27.553 98.467-61.542 98.467s-61.542-44.085-61.542-98.467v-1e-5"/>
  <path transform="matrix(.54964 0 0 -.95313 767.78 1308.9)" d="m223.09 755.42c0 54.382-27.553 98.467-61.542 98.467s-61.542-44.085-61.542-98.467v-1e-5"/>
  <path transform="matrix(.76949 0 0 .74074 754.09 22.553)" d="m-95.39 610.8c0 22.942-13.777 41.541-30.771 41.541s-30.771-18.598-30.771-41.541 13.777-41.541 30.771-41.541c13.927 0 26.118 12.628 29.722 30.789"/>
  <path transform="matrix(.65957 0 0 .64815 792.31 84.493)" d="m-95.39 610.8c0 22.942-13.777 41.541-30.771 41.541s-30.771-18.598-30.771-41.541 13.777-41.541 30.771-41.541c13.927 0 26.118 12.628 29.722 30.789"/>
  <path transform="matrix(.63685 .19515 -.16526 .69734 947.21 68.294)" d="m-95.39 610.8c0 22.942-13.777 41.541-30.771 41.541s-30.771-18.598-30.771-41.541 13.777-41.541 30.771-41.541c13.927 0 26.118 12.628 29.722 30.789"/>
  <path transform="matrix(.65289 -.10641 .09011 .71492 847.37 31.825)" d="m-95.39 610.8c0 22.942-13.777 41.541-30.771 41.541s-30.771-18.598-30.771-41.541 13.777-41.541 30.771-41.541c13.927 0 26.118 12.628 29.722 30.789"/>
  <path transform="matrix(.65957 0 0 .72222 953.32 36.171)" d="m-95.39 610.8c0 22.942-13.777 41.541-30.771 41.541s-30.771-18.598-30.771-41.541 13.777-41.541 30.771-41.541c13.927 0 26.118 12.628 29.722 30.789"/>
  <path transform="matrix(.58601 .34418 -.29147 .64168 1122.1 128.79)" d="m-95.39 610.8c0 22.942-13.777 41.541-30.771 41.541s-30.771-18.598-30.771-41.541 13.777-41.541 30.771-41.541c13.927 0 26.118 12.628 29.722 30.789"/>
 </g>
 <g fill="#b3b3b3">
  <path transform="matrix(.54964 0 0 -.98438 654.13 1334.1)" d="m223.09 755.42c0 54.382-27.553 98.467-61.542 98.467s-61.542-44.085-61.542-98.467v-1e-5"/>
  <path transform="matrix(.54964 0 0 -.9375 704.19 1298.7)" d="m223.09 755.42c0 54.382-27.553 98.467-61.542 98.467s-61.542-44.085-61.542-98.467v-1e-5"/>
  <path transform="matrix(.54964 0 0 -1 752.9 1345.9)" d="m223.09 755.42c0 54.382-27.553 98.467-61.542 98.467s-61.542-44.085-61.542-98.467v-1e-5"/>
  <path transform="matrix(.54964 0 0 -.90625 800.25 1275)" d="m223.09 755.42c0 54.382-27.553 98.467-61.542 98.467s-61.542-44.085-61.542-98.467v-1e-5"/>
  <path transform="matrix(.54964 0 0 -.95313 847.61 1310.5)" d="m223.09 755.42c0 54.382-27.553 98.467-61.542 98.467s-61.542-44.085-61.542-98.467v-1e-5"/>
  <path transform="matrix(.76949 0 0 .74074 833.91 24.147)" d="m-95.39 610.8c0 22.942-13.777 41.541-30.771 41.541s-30.771-18.598-30.771-41.541 13.777-41.541 30.771-41.541c13.927 0 26.118 12.628 29.722 30.789"/>
  <path transform="matrix(.65957 0 0 .64815 872.13 86.087)" d="m-95.39 610.8c0 22.942-13.777 41.541-30.771 41.541s-30.771-18.598-30.771-41.541 13.777-41.541 30.771-41.541c13.927 0 26.118 12.628 29.722 30.789"/>
  <path transform="matrix(.63685 .19515 -.16526 .69734 1027 69.888)" d="m-95.39 610.8c0 22.942-13.777 41.541-30.771 41.541s-30.771-18.598-30.771-41.541 13.777-41.541 30.771-41.541c13.927 0 26.118 12.628 29.722 30.789"/>
  <path transform="matrix(.65289 -.10641 .09011 .71492 927.2 33.419)" d="m-95.39 610.8c0 22.942-13.777 41.541-30.771 41.541s-30.771-18.598-30.771-41.541 13.777-41.541 30.771-41.541c13.927 0 26.118 12.628 29.722 30.789"/>
  <path transform="matrix(.65957 0 0 .72222 1033.1 37.766)" d="m-95.39 610.8c0 22.942-13.777 41.541-30.771 41.541s-30.771-18.598-30.771-41.541 13.777-41.541 30.771-41.541c13.927 0 26.118 12.628 29.722 30.789"/>
  <path transform="matrix(.58601 .34418 -.29147 .64168 1201.9 130.38)" d="m-95.39 610.8c0 22.942-13.777 41.541-30.771 41.541s-30.771-18.598-30.771-41.541 13.777-41.541 30.771-41.541c13.927 0 26.118 12.628 29.722 30.789"/>
 </g>
 <g fill="#666">
  <path transform="matrix(-.54964 0 0 -.98438 486.77 1318.6)" d="m223.09 755.42c0 54.382-27.553 98.467-61.542 98.467s-61.542-44.085-61.542-98.467v-1e-5"/>
  <path transform="matrix(-.54964 0 0 -.9375 436.7 1283.2)" d="m223.09 755.42c0 54.382-27.553 98.467-61.542 98.467s-61.542-44.085-61.542-98.467v-1e-5"/>
  <path transform="matrix(-.54964 0 0 -1 388 1330.4)" d="m223.09 755.42c0 54.382-27.553 98.467-61.542 98.467s-61.542-44.085-61.542-98.467v-1e-5"/>
  <path transform="matrix(-.54964 0 0 -.90625 340.64 1259.6)" d="m223.09 755.42c0 54.382-27.553 98.467-61.542 98.467s-61.542-44.085-61.542-98.467v-1e-5"/>
  <path transform="matrix(-.54964 0 0 -.95313 293.28 1295)" d="m223.09 755.42c0 54.382-27.553 98.467-61.542 98.467s-61.542-44.085-61.542-98.467v-1e-5"/>
  <path transform="matrix(-.76949 0 0 .74074 306.98 8.7056)" d="m-95.39 610.8c0 22.942-13.777 41.541-30.771 41.541s-30.771-18.598-30.771-41.541 13.777-41.541 30.771-41.541c13.927 0 26.118 12.628 29.722 30.789"/>
  <path transform="matrix(-.65957 0 0 .64815 268.76 70.646)" d="m-95.39 610.8c0 22.942-13.777 41.541-30.771 41.541s-30.771-18.598-30.771-41.541 13.777-41.541 30.771-41.541c13.927 0 26.118 12.628 29.722 30.789"/>
  <path transform="matrix(-.63685 .19515 .16526 .69734 113.86 54.448)" d="m-95.39 610.8c0 22.942-13.777 41.541-30.771 41.541s-30.771-18.598-30.771-41.541 13.777-41.541 30.771-41.541c13.927 0 26.118 12.628 29.722 30.789"/>
  <path transform="matrix(-.65289 -.10641 -.09011 .71492 213.7 17.978)" d="m-95.39 610.8c0 22.942-13.777 41.541-30.771 41.541s-30.771-18.598-30.771-41.541 13.777-41.541 30.771-41.541c13.927 0 26.118 12.628 29.722 30.789"/>
  <path transform="matrix(-.65957 0 0 .72222 107.75 22.325)" d="m-95.39 610.8c0 22.942-13.777 41.541-30.771 41.541s-30.771-18.598-30.771-41.541 13.777-41.541 30.771-41.541c13.927 0 26.118 12.628 29.722 30.789"/>
  <path transform="matrix(-.58601 .34418 .29147 .64168 -61 114.94)" d="m-95.39 610.8c0 22.942-13.777 41.541-30.771 41.541s-30.771-18.598-30.771-41.541 13.777-41.541 30.771-41.541c13.927 0 26.118 12.628 29.722 30.789"/>
 </g>
 <g fill="#4d4d4d">
  <path transform="matrix(-.54964 0 0 -.98438 767.92 1372.5)" d="m223.09 755.42c0 54.382-27.553 98.467-61.542 98.467s-61.542-44.085-61.542-98.467v-1e-5"/>
  <path transform="matrix(-.54964 0 0 -.9375 717.86 1337.1)" d="m223.09 755.42c0 54.382-27.553 98.467-61.542 98.467s-61.542-44.085-61.542-98.467v-1e-5"/>
  <path transform="matrix(-.54964 0 0 -1 669.15 1384.3)" d="m223.09 755.42c0 54.382-27.553 98.467-61.542 98.467s-61.542-44.085-61.542-98.467v-1e-5"/>
  <path transform="matrix(-.54964 0 0 -.90625 621.8 1313.5)" d="m223.09 755.42c0 54.382-27.553 98.467-61.542 98.467s-61.542-44.085-61.542-98.467v-1e-5"/>
  <path transform="matrix(-.54964 0 0 -.95313 574.44 1348.9)" d="m223.09 755.42c0 54.382-27.553 98.467-61.542 98.467s-61.542-44.085-61.542-98.467v-1e-5"/>
  <path transform="matrix(-.76949 0 0 .74074 588.14 62.555)" d="m-95.39 610.8c0 22.942-13.777 41.541-30.771 41.541s-30.771-18.598-30.771-41.541 13.777-41.541 30.771-41.541c13.927 0 26.118 12.628 29.722 30.789"/>
  <path transform="matrix(-.65957 0 0 .64815 549.92 124.5)" d="m-95.39 610.8c0 22.942-13.777 41.541-30.771 41.541s-30.771-18.598-30.771-41.541 13.777-41.541 30.771-41.541c13.927 0 26.118 12.628 29.722 30.789"/>
  <path transform="matrix(-.63685 .19515 .16526 .69734 395.01 108.3)" d="m-95.39 610.8c0 22.942-13.777 41.541-30.771 41.541s-30.771-18.598-30.771-41.541 13.777-41.541 30.771-41.541c13.927 0 26.118 12.628 29.722 30.789"/>
  <path transform="matrix(-.65289 -.10641 -.09011 .71492 494.85 71.827)" d="m-95.39 610.8c0 22.942-13.777 41.541-30.771 41.541s-30.771-18.598-30.771-41.541 13.777-41.541 30.771-41.541c13.927 0 26.118 12.628 29.722 30.789"/>
  <path transform="matrix(-.65957 0 0 .72222 388.91 76.174)" d="m-95.39 610.8c0 22.942-13.777 41.541-30.771 41.541s-30.771-18.598-30.771-41.541 13.777-41.541 30.771-41.541c13.927 0 26.118 12.628 29.722 30.789"/>
  <path transform="matrix(-.58601 .34418 .29147 .64168 220.16 168.79)" d="m-95.39 610.8c0 22.942-13.777 41.541-30.771 41.541s-30.771-18.598-30.771-41.541 13.777-41.541 30.771-41.541c13.927 0 26.118 12.628 29.722 30.789"/>
 </g>
 <g fill="#808080">
  <path transform="matrix(-.54735 -.05008 .0897 -.98028 923.92 1393.7)" d="m223.09 755.42c0 54.382-27.553 98.467-61.542 98.467s-61.542-44.085-61.542-98.467v-1e-5"/>
  <path transform="matrix(-.54735 -.05008 .08543 -.9336 877.29 1353.9)" d="m223.09 755.42c0 54.382-27.553 98.467-61.542 98.467s-61.542-44.085-61.542-98.467v-1e-5"/>
  <path transform="matrix(-.54735 -.05008 .09112 -.99584 824.49 1396.5)" d="m223.09 755.42c0 54.382-27.553 98.467-61.542 98.467s-61.542-44.085-61.542-98.467v-1e-5"/>
  <path transform="matrix(-.54735 -.05008 .08258 -.90248 783.78 1321.6)" d="m223.09 755.42c0 54.382-27.553 98.467-61.542 98.467s-61.542-44.085-61.542-98.467v-1e-5"/>
  <path transform="matrix(-.54735 -.05008 .08685 -.94916 733.4 1352.6)" d="m223.09 755.42c0 54.382-27.553 98.467-61.542 98.467s-61.542-44.085-61.542-98.467v-1e-5"/>
  <path transform="matrix(-.76629 -.07012 -.0675 .73766 864.25 72.883)" d="m-95.39 610.8c0 22.942-13.777 41.541-30.771 41.541s-30.771-18.598-30.771-41.541 13.777-41.541 30.771-41.541c13.927 0 26.118 12.628 29.722 30.789"/>
  <path transform="matrix(-.65682 -.0601 -.05906 .64545 820.54 131.08)" d="m-95.39 610.8c0 22.942-13.777 41.541-30.771 41.541s-30.771-18.598-30.771-41.541 13.777-41.541 30.771-41.541c13.927 0 26.118 12.628 29.722 30.789"/>
  <path transform="matrix(-.65198 .13631 .10103 .7095 667.76 100.84)" d="m-95.39 610.8c0 22.942-13.777 41.541-30.771 41.541s-30.771-18.598-30.771-41.541 13.777-41.541 30.771-41.541c13.927 0 26.118 12.628 29.722 30.789"/>
  <path transform="matrix(-.64048 -.16546 -.15488 .70373 770.5 73.616)" d="m-95.39 610.8c0 22.942-13.777 41.541-30.771 41.541s-30.771-18.598-30.771-41.541 13.777-41.541 30.771-41.541c13.927 0 26.118 12.628 29.722 30.789"/>
  <path transform="matrix(-.65682 -.0601 -.06581 .71922 664.6 68.29)" d="m-95.39 610.8c0 22.942-13.777 41.541-30.771 41.541s-30.771-18.598-30.771-41.541 13.777-41.541 30.771-41.541c13.927 0 26.118 12.628 29.722 30.789"/>
  <path transform="matrix(-.61494 .28935 .23179 .66557 488.12 145.14)" d="m-95.39 610.8c0 22.942-13.777 41.541-30.771 41.541s-30.771-18.598-30.771-41.541 13.777-41.541 30.771-41.541c13.927 0 26.118 12.628 29.722 30.789"/>
 </g>
 <g fill="#808080">
  <path transform="matrix(.54929 -.01946 -.03486 -.98376 210.18 1383.2)" d="m223.09 755.42c0 54.382-27.553 98.467-61.542 98.467s-61.542-44.085-61.542-98.467v-1e-5"/>
  <path transform="matrix(.54929 -.01946 -.0332 -.93691 258.96 1346)" d="m223.09 755.42c0 54.382-27.553 98.467-61.542 98.467s-61.542-44.085-61.542-98.467v-1e-5"/>
  <path transform="matrix(.54929 -.01946 -.03541 -.99937 309.31 1391.5)" d="m223.09 755.42c0 54.382-27.553 98.467-61.542 98.467s-61.542-44.085-61.542-98.467v-1e-5"/>
  <path transform="matrix(.54929 -.01946 -.03209 -.90568 354.13 1319)" d="m223.09 755.42c0 54.382-27.553 98.467-61.542 98.467s-61.542-44.085-61.542-98.467v-1e-5"/>
  <path transform="matrix(.54929 -.01946 -.03375 -.95253 402.71 1352.7)" d="m223.09 755.42c0 54.382-27.553 98.467-61.542 98.467s-61.542-44.085-61.542-98.467v-1e-5"/>
  <path transform="matrix(.76901 -.02725 .02623 .74028 343.46 67.708)" d="m-95.39 610.8c0 22.942-13.777 41.541-30.771 41.541s-30.771-18.598-30.771-41.541 13.777-41.541 30.771-41.541c13.927 0 26.118 12.628 29.722 30.789"/>
  <path transform="matrix(.65915 -.02336 .02295 .64774 383.86 128.26)" d="m-95.39 610.8c0 22.942-13.777 41.541-30.771 41.541s-30.771-18.598-30.771-41.541 13.777-41.541 30.771-41.541c13.927 0 26.118 12.628 29.722 30.789"/>
  <path transform="matrix(.64336 .17248 -.14047 .70276 538.09 106.58)" d="m-95.39 610.8c0 22.942-13.777 41.541-30.771 41.541s-30.771-18.598-30.771-41.541 13.777-41.541 30.771-41.541c13.927 0 26.118 12.628 29.722 30.789"/>
  <path transform="matrix(.64872 -.12946 .11537 .71128 437.02 73.671)" d="m-95.39 610.8c0 22.942-13.777 41.541-30.771 41.541s-30.771-18.598-30.771-41.541 13.777-41.541 30.771-41.541c13.927 0 26.118 12.628 29.722 30.789"/>
  <path transform="matrix(.65915 -.02336 .02558 .72177 543.05 74.263)" d="m-95.39 610.8c0 22.942-13.777 41.541-30.771 41.541s-30.771-18.598-30.771-41.541 13.777-41.541 30.771-41.541c13.927 0 26.118 12.628 29.722 30.789"/>
  <path transform="matrix(.59783 .32321 -.26856 .6516 714.98 160.84)" d="m-95.39 610.8c0 22.942-13.777 41.541-30.771 41.541s-30.771-18.598-30.771-41.541 13.777-41.541 30.771-41.541c13.927 0 26.118 12.628 29.722 30.789"/>
 </g>
</svg>
